<svg width="26" height="63" viewBox="0 0 26 63" fill="none" xmlns="http://www.w3.org/2000/svg">
<path d="M25.91 63V65H27.91V63H25.91ZM25.91 -3.8147e-06H27.91V-2H25.91V-3.8147e-06ZM0.8 -3.8147e-06V-2H-1.2V-3.8147e-06H0.8ZM0.8 12.6H-1.2V14.6H0.8V12.6ZM13.4 12.6H15.4V10.6H13.4V12.6ZM13.4 63H11.4V65H13.4V63ZM27.91 63V-3.8147e-06H23.91V63H27.91ZM25.91 -2H0.8V2H25.91V-2ZM-1.2 -3.8147e-06V12.6H2.8V-3.8147e-06H-1.2ZM0.8 14.6H13.4V10.6H0.8V14.6ZM11.4 12.6V63H15.4V12.6H11.4ZM13.4 65H25.91V61H13.4V65Z" fill="url(#paint0_linear_1453_592)"/>
<defs>
<linearGradient id="paint0_linear_1453_592" x1="-1" y1="-17.1378" x2="19.0983" y2="-16.83" gradientUnits="userSpaceOnUse">
<stop stop-color="#6A77EF" stop-opacity="0.85"/>
<stop offset="1" stop-color="#4B3193"/>
</linearGradient>
</defs>
</svg>
