<svg width="58" height="63" viewBox="0 0 58 63" fill="none" xmlns="http://www.w3.org/2000/svg">
<path d="M44.81 12.6H46.81V10.6H44.81V12.6ZM44.81 18.99L45.9718 20.6179L46.81 20.0197V18.99H44.81ZM0.8 50.4L-0.361846 48.7721L-1.2 49.3703V50.4H0.8ZM0.8 63H-1.2V65H0.8V63ZM57.32 63V65H59.32V63H57.32ZM57.32 50.4H59.32V48.4H57.32V50.4ZM22.22 50.4L21.0563 48.7734L15.9869 52.4H22.22V50.4ZM57.32 25.29L58.4837 26.9166L59.32 26.3183V25.29H57.32ZM57.32 6.39H59.32V5.57826L58.7543 4.99613L57.32 6.39ZM51.11 -3.8147e-06L52.5443 -1.39387L51.9552 -2H51.11V-3.8147e-06ZM7.01 -3.8147e-06V-2H6.16479L5.57573 -1.39387L7.01 -3.8147e-06ZM0.8 6.39L-0.634271 4.99613L-1.2 5.57826V6.39H0.8ZM0.8 18.9H-1.2V20.9H0.8V18.9ZM13.4 18.9V20.9H15.4V18.9H13.4ZM13.4 12.6V10.6H11.4V12.6H13.4ZM42.81 12.6V18.99H46.81V12.6H42.81ZM43.6482 17.3621L-0.361846 48.7721L1.96185 52.0279L45.9718 20.6179L43.6482 17.3621ZM-1.2 50.4V63H2.8V50.4H-1.2ZM0.8 65H57.32V61H0.8V65ZM59.32 63V50.4H55.32V63H59.32ZM57.32 48.4H22.22V52.4H57.32V48.4ZM23.3837 52.0266L58.4837 26.9166L56.1563 23.6634L21.0563 48.7734L23.3837 52.0266ZM59.32 25.29V6.39H55.32V25.29H59.32ZM58.7543 4.99613L52.5443 -1.39387L49.6757 1.39386L55.8857 7.78387L58.7543 4.99613ZM51.11 -2H7.01V2H51.11V-2ZM5.57573 -1.39387L-0.634271 4.99613L2.23427 7.78387L8.44427 1.39386L5.57573 -1.39387ZM-1.2 6.39V18.9H2.8V6.39H-1.2ZM0.8 20.9H13.4V16.9H0.8V20.9ZM15.4 18.9V12.6H11.4V18.9H15.4ZM13.4 14.6H44.81V10.6H13.4V14.6Z" fill="url(#paint0_linear_1453_591)"/>
<defs>
<linearGradient id="paint0_linear_1453_591" x1="-1" y1="-17.1378" x2="58.6699" y2="-14.4201" gradientUnits="userSpaceOnUse">
<stop stop-color="#6A77EF" stop-opacity="0.85"/>
<stop offset="1" stop-color="#4B3193"/>
</linearGradient>
</defs>
</svg>
