<svg width="58" height="63" viewBox="0 0 58 63" fill="none" xmlns="http://www.w3.org/2000/svg">
<path d="M51.01 63V65H51.8384L52.4242 64.4142L51.01 63ZM57.22 56.79L58.6342 58.2042L59.22 57.6184V56.79H57.22ZM57.22 31.5H59.22V30.68L58.6444 30.096L57.22 31.5ZM51.01 25.2L52.4344 23.796L51.8469 23.2H51.01V25.2ZM41.38 25.2L40.5438 23.3832L41.38 27.2V25.2ZM57.22 17.91L58.0562 19.7268L59.22 19.1912V17.91H57.22ZM57.22 -3.8147e-06H59.22V-2H57.22V-3.8147e-06ZM0.7 -3.8147e-06V-2H-1.3V-3.8147e-06H0.7ZM0.7 18.9H-1.3V20.9H0.7V18.9ZM13.3 18.9V20.9H15.3V18.9H13.3ZM13.3 12.6V10.6H11.3V12.6H13.3ZM44.71 12.6L45.6095 14.3863L44.71 10.6V12.6ZM19.51 25.29L18.6105 23.5037L17.51 24.0579V25.29H19.51ZM19.51 37.89H17.51V39.89H19.51V37.89ZM44.71 37.89H46.71V35.89H44.71V37.89ZM44.71 50.4V52.4H46.71V50.4H44.71ZM13.3 50.4H11.3V52.4H13.3V50.4ZM13.3 44.19H15.3V42.19H13.3V44.19ZM0.7 44.19V42.19H-1.3V44.19H0.7ZM0.7 56.79H-1.3V57.6184L-0.714213 58.2042L0.7 56.79ZM6.91 63L5.49579 64.4142L6.08157 65H6.91V63ZM52.4242 64.4142L58.6342 58.2042L55.8058 55.3758L49.5958 61.5858L52.4242 64.4142ZM59.22 56.79V31.5H55.22V56.79H59.22ZM58.6444 30.096L52.4344 23.796L49.5857 26.604L55.7957 32.904L58.6444 30.096ZM51.01 23.2H41.38V27.2H51.01V23.2ZM42.2162 27.0168L58.0562 19.7268L56.3839 16.0932L40.5438 23.3832L42.2162 27.0168ZM59.22 17.91V-3.8147e-06H55.22V17.91H59.22ZM57.22 -2H0.7V2H57.22V-2ZM-1.3 -3.8147e-06V18.9H2.7V-3.8147e-06H-1.3ZM0.7 20.9H13.3V16.9H0.7V20.9ZM15.3 18.9V12.6H11.3V18.9H15.3ZM13.3 14.6H44.71V10.6H13.3V14.6ZM43.8105 10.8137L18.6105 23.5037L20.4095 27.0763L45.6095 14.3863L43.8105 10.8137ZM17.51 25.29V37.89H21.51V25.29H17.51ZM19.51 39.89H44.71V35.89H19.51V39.89ZM42.71 37.89V50.4H46.71V37.89H42.71ZM44.71 48.4H13.3V52.4H44.71V48.4ZM15.3 50.4V44.19H11.3V50.4H15.3ZM13.3 42.19H0.7V46.19H13.3V42.19ZM-1.3 44.19V56.79H2.7V44.19H-1.3ZM-0.714213 58.2042L5.49579 64.4142L8.32421 61.5858L2.11421 55.3758L-0.714213 58.2042ZM6.91 65H51.01V61H6.91V65Z" fill="url(#paint0_linear_1453_590)"/>
<defs>
<linearGradient id="paint0_linear_1453_590" x1="-2" y1="-17.1378" x2="57.6699" y2="-14.4201" gradientUnits="userSpaceOnUse">
<stop stop-color="#6A77EF" stop-opacity="0.85"/>
<stop offset="1" stop-color="#4B3193"/>
</linearGradient>
</defs>
</svg>
