<svg width="57" height="63" viewBox="0 0 57 63" fill="none" xmlns="http://www.w3.org/2000/svg">
<path d="M0 37.89L-1.41758 36.4792L-2 37.0644V37.89H0ZM0 50.4H-2V52.4H0V50.4ZM37.71 50.4H39.71V48.4H37.71V50.4ZM37.71 63H35.71V65H37.71V63ZM50.31 63V65H52.31V63H50.31ZM50.31 50.4V48.4H48.31V50.4H50.31ZM56.52 50.4V52.4H58.52V50.4H56.52ZM56.52 37.89H58.52V35.89H56.52V37.89ZM50.31 37.89H48.31V39.89H50.31V37.89ZM50.31 -3.8147e-06H52.31V-2H50.31V-3.8147e-06ZM37.71 -3.8147e-06V-2H36.8788L36.2924 -1.41085L37.71 -3.8147e-06ZM37.71 37.89V39.89H39.71V37.89H37.71ZM15.75 37.89L14.3416 36.47L10.8933 39.89H15.75V37.89ZM37.71 16.11H39.71V11.3095L36.3016 14.69L37.71 16.11ZM-2 37.89V50.4H2V37.89H-2ZM0 52.4H37.71V48.4H0V52.4ZM35.71 50.4V63H39.71V50.4H35.71ZM37.71 65H50.31V61H37.71V65ZM52.31 63V50.4H48.31V63H52.31ZM50.31 52.4H56.52V48.4H50.31V52.4ZM58.52 50.4V37.89H54.52V50.4H58.52ZM56.52 35.89H50.31V39.89H56.52V35.89ZM52.31 37.89V-3.8147e-06H48.31V37.89H52.31ZM50.31 -2H37.71V2H50.31V-2ZM36.2924 -1.41085L-1.41758 36.4792L1.41758 39.3008L39.1276 1.41084L36.2924 -1.41085ZM37.71 35.89H15.75V39.89H37.71V35.89ZM17.1584 39.31L39.1184 17.53L36.3016 14.69L14.3416 36.47L17.1584 39.31ZM35.71 16.11V37.89H39.71V16.11H35.71Z" fill="url(#paint0_linear_1453_589)"/>
<defs>
<linearGradient id="paint0_linear_1453_589" x1="1.70766e-08" y1="-17.1378" x2="59.6699" y2="-14.4201" gradientUnits="userSpaceOnUse">
<stop stop-color="#6A77EF" stop-opacity="0.85"/>
<stop offset="1" stop-color="#4B3193"/>
</linearGradient>
</defs>
</svg>
