<svg width="39" height="40" viewBox="0 0 39 40" fill="none" xmlns="http://www.w3.org/2000/svg">
<path d="M30.8205 36.0654H22.9516V38.6884H20.9844V39.9999H32.7877V38.6884H30.8205V36.0654Z" fill="white"/>
<path d="M10.1803 12.4219C10.0065 12.4448 9.8308 12.4579 9.65375 12.4579H5.90226C5.17898 12.4579 4.59078 13.0461 4.59078 13.7694V15.0809H3.93504C3.57307 15.0809 3.2793 15.3747 3.2793 15.7366C3.2793 15.9845 3.37504 16.2173 3.55012 16.3917L4.20651 17.0481C4.45504 17.2973 4.59078 17.6265 4.59078 17.976V24.3203C5.11668 24.4088 5.60717 24.6016 6.04062 24.8777C6.53046 24.7911 6.95865 24.5 7.21374 24.0704V22.9504V21.639H8.25374C8.67669 21.639 9.07407 21.4744 9.37309 21.1753C9.67211 20.8763 9.8367 20.4783 9.8367 20.056V17.8875L11.7901 17.2363C11.657 15.0488 10.636 13.1642 10.1803 12.4219Z" fill="white"/>
<path d="M6.55647 28.1962C6.55647 26.7496 5.38007 25.5732 3.93351 25.5732C2.48694 25.5732 1.31055 26.7496 1.31055 28.1962V32.132L6.55647 32.1306V28.1962Z" fill="white"/>
<path d="M17.709 36.0653H17.05C17.048 36.0653 17.046 36.0647 17.0434 36.0647H15.3326L14.8467 35.0935C14.669 34.7381 14.1418 34.6522 13.8631 34.9335L12.7306 36.0653H6.55814C5.83486 36.0653 5.24666 35.4771 5.24666 34.7539V33.4424H2.6237L2.62305 36.026C2.62305 36.7224 2.89387 37.3762 3.38567 37.8673C3.92403 38.405 4.60404 38.6883 5.32273 38.6883L16.3962 38.6876C17.4795 38.6876 18.3615 37.805 18.3615 36.7204C18.3615 36.3598 18.069 36.0673 17.709 36.0653Z" fill="white"/>
<path d="M6.55664 33.4418V34.7533H11.7737C11.6373 31.2221 10.2885 27.9139 7.9232 25.2969C7.6891 25.5395 7.41828 25.7428 7.11927 25.8956C7.58812 26.5434 7.86812 27.3369 7.86812 28.1959V32.1303C7.86812 32.8536 7.27992 33.4418 6.55664 33.4418Z" fill="white"/>
<path d="M34.0991 17.0488C34.4613 17.0488 34.7548 16.7552 34.7548 16.393C34.7548 16.0309 34.4613 15.7373 34.0991 15.7373C33.7369 15.7373 33.4434 16.0309 33.4434 16.393C33.4434 16.7552 33.7369 17.0488 34.0991 17.0488Z" fill="white"/>
<path d="M15.7383 33.4423C15.7383 34.163 16.3232 34.7499 17.0432 34.7532H17.7055C17.7075 34.7532 17.7094 34.7538 17.7121 34.7538H36.722C37.4452 34.7538 38.0334 34.1656 38.0334 33.4423V32.1309H15.7383V33.4423Z" fill="white"/>
<path d="M37.3257 15.2656L37.7945 14.9934L37.1473 13.8629L36.704 14.1226C36.3224 14.3455 35.8555 14.356 35.4647 14.1574L35.4489 14.1495C35.4371 14.1429 35.426 14.1364 35.4142 14.1305L35.4063 14.1265C34.9899 13.8839 34.742 13.4518 34.742 12.9895V12.459H33.4522V12.9895C33.4522 13.4518 33.2043 13.8839 32.8056 14.1167L32.7355 14.1554C32.3433 14.356 31.8745 14.3462 31.4922 14.1239L31.0476 13.8642L30.4004 14.9947L30.8686 15.2662C31.2673 15.4983 31.5145 15.9298 31.5132 16.3921C31.5145 16.8597 31.2673 17.2905 30.8692 17.5226L30.4004 17.7947L31.0476 18.9252L31.4909 18.6656C31.8935 18.4302 32.3952 18.4315 32.7997 18.6682C33.2043 18.9043 33.4522 19.337 33.4522 19.7993V20.3279H34.742V19.7974C34.742 19.3351 34.9899 18.9029 35.3886 18.6702C35.7991 18.4302 36.2994 18.4295 36.7021 18.6629L37.1466 18.9226L37.7939 17.7921L37.325 17.52C36.927 17.2879 36.6798 16.857 36.6811 16.3947C36.6798 15.9285 36.927 15.4977 37.3257 15.2656ZM34.0975 18.3606C33.0129 18.3606 32.1302 17.478 32.1302 16.3934C32.1302 15.3088 33.0129 14.4262 34.0975 14.4262C35.182 14.4262 36.0647 15.3088 36.0647 16.3934C36.0647 17.478 35.182 18.3606 34.0975 18.3606Z" fill="white"/>
<path d="M2.26296 18.3277L3.2787 19.0529V17.9762L2.62296 17.3198C2.20001 16.8975 1.96722 16.3355 1.96722 15.7369C1.96722 14.8818 2.51542 14.1526 3.2787 13.8818V13.7696C3.2787 12.3231 4.4551 11.1467 5.90166 11.1467H9.65381C9.8984 11.1467 10.141 11.1132 10.3751 11.0483C11.2158 10.8129 11.8033 10.0391 11.8033 9.16634C11.8033 8.08896 10.9266 7.21289 9.84987 7.21289H4.59018C2.78231 7.21289 1.31148 8.68372 1.31148 10.4916V10.7631L1.11935 10.9552C0.397378 11.6772 0 12.6365 0 13.6575V13.9296C0 15.6713 0.845905 17.3152 2.26296 18.3277Z" fill="white"/>
<path d="M37.6289 20.7234L36.0433 19.7968L36.0551 21.6395H32.1423V19.7975L30.5692 20.7228L28.6157 17.3142L30.2006 16.3936H17.0498C16.3265 16.3936 15.7383 16.9818 15.7383 17.705V30.8198H38.0334V20.0172L37.6289 20.7234ZM24.9186 17.705H27.5416V19.0165H24.9186V17.705ZM20.9842 17.705H23.6072V19.0165H20.9842V17.705ZM32.1318 29.5084H17.0498V17.705H18.3612V24.8119L19.2917 22.0205C19.6294 21.008 20.5731 20.328 21.6399 20.328C22.7068 20.328 23.6504 21.008 23.9881 22.0205L24.6157 23.9031L24.6708 23.8146C25.0098 23.2736 25.5921 22.951 26.2301 22.951C26.8682 22.951 27.4505 23.2736 27.7895 23.8146L30.5278 28.1969H32.1318V29.5084ZM36.722 26.8854H32.1318V25.5739H36.722V26.8854ZM36.722 24.2624H32.1318V22.951H36.722V24.2624Z" fill="white"/>
<path d="M22.7451 22.4357C22.5857 21.9597 22.1425 21.6396 21.6402 21.6396C21.1379 21.6396 20.6946 21.9597 20.5352 22.4357L18.6152 28.197H21.9326L23.7149 25.3452L22.7451 22.4357Z" fill="white"/>
<path d="M25.7821 24.51L23.4785 28.1965H28.9815L26.6779 24.51C26.4831 24.1998 25.9769 24.1998 25.7821 24.51Z" fill="white"/>
<path d="M22.9516 13.7705H26.886V3.93444H28.8533L24.9188 0L20.9844 3.93444H22.9516V13.7705Z" fill="white"/>
<path d="M31.475 9.83623H35.4095V7.86901H37.3767L33.4423 3.93457L29.5078 7.86901H31.475V9.83623Z" fill="white"/>
<path d="M14.4262 13.7706H18.3606V6.55749H20.3279L16.3934 2.62305L12.459 6.55749H14.4262V13.7706Z" fill="white"/>
</svg>
