<svg width="40" height="40" viewBox="0 0 40 40" fill="none" xmlns="http://www.w3.org/2000/svg">
<path d="M22.9778 22.7588C22.5606 24.0581 21.9434 25.2098 21.4316 26.034C23.2399 25.605 24.7413 24.385 25.5523 22.7588H22.9778Z" fill="white"/>
<path d="M18.4805 22.7588C18.9287 23.976 19.5536 25.0347 19.9984 25.7064C20.4432 25.034 21.0674 23.9747 21.5156 22.7588H18.4805Z" fill="white"/>
<path d="M14.4492 22.7588C15.2609 24.385 16.7616 25.605 18.5699 26.034C18.0582 25.2098 17.4403 24.0581 17.023 22.7588H14.4492Z" fill="white"/>
<path d="M26.0477 21.3797C26.149 20.9356 26.2077 20.4749 26.2077 20.0004C26.2077 19.5259 26.149 19.0652 26.0477 18.6211H23.3242C23.4028 19.0749 23.449 19.5363 23.449 20.0004C23.449 20.4645 23.4028 20.9259 23.3242 21.3797H26.0477Z" fill="white"/>
<path d="M13.953 18.6211C13.8516 19.0652 13.793 19.5259 13.793 20.0004C13.793 20.4749 13.8516 20.9356 13.953 21.3797H16.6771C16.5978 20.9259 16.5516 20.4645 16.5516 20.0004C16.5516 19.5363 16.5978 19.0749 16.6764 18.6211H13.953Z" fill="white"/>
<path d="M17.9316 20.0004C17.9316 20.4618 17.991 20.9245 18.0847 21.3797H21.9158C22.0096 20.9239 22.0696 20.4618 22.0696 20.0004C22.0696 19.539 22.0103 19.0763 21.9165 18.6211H18.0854C17.9916 19.077 17.9316 19.539 17.9316 20.0004Z" fill="white"/>
<path d="M25.5523 17.241C24.7406 15.6148 23.2399 14.3948 21.4316 13.9658C21.9434 14.79 22.5613 15.9417 22.9778 17.241H25.5523Z" fill="white"/>
<path d="M21.5195 17.2415C21.0713 16.0243 20.4464 14.9657 20.0016 14.2939C19.5568 14.9664 18.9327 16.0257 18.4844 17.2415H21.5195Z" fill="white"/>
<path d="M17.023 17.241C17.4403 15.9417 18.0575 14.79 18.5699 13.9658C16.7616 14.3948 15.2603 15.6148 14.4492 17.241H17.023Z" fill="white"/>
<path d="M6.89655 13.7931C10.6993 13.7931 13.7931 10.6993 13.7931 6.89655C13.7931 3.09379 10.6993 0 6.89655 0C3.09379 0 0 3.09379 0 6.89655C0 10.6993 3.09379 13.7931 6.89655 13.7931ZM1.12966 5.92759L3.18414 2.34345L4.85103 3.31724L4.83931 1.37931H8.95448V3.31655L10.609 2.34345L12.6634 5.92759L10.9959 6.89655L12.6634 7.86552L10.609 11.4497L8.95103 10.4814L8.95379 12.4138H4.83862V10.4821L4.80069 10.4572L3.18345 11.4497L1.12897 7.86552L2.80759 6.88966L1.12966 5.92759Z" fill="white"/>
<path d="M3.50092 8.08293L3.00781 8.36982L3.6885 9.5581L4.1554 9.28569C4.56023 9.04913 5.0623 9.04017 5.47885 9.25948L5.53816 9.29258C5.95747 9.53741 6.21747 9.99189 6.21747 10.4774V11.0347H7.57402V10.4767C7.57402 9.9912 7.83402 9.53741 8.25333 9.29189L8.33816 9.24913C8.77057 9.04017 9.24712 9.05741 9.63678 9.285L10.103 9.55741L10.7837 8.36913L10.2906 8.08224C9.87195 7.8381 9.61195 7.385 9.61333 6.89879C9.61195 6.40775 9.87195 5.95396 10.2906 5.70982L10.7837 5.42293L10.103 4.23603L9.63609 4.50844C9.21471 4.75534 8.68643 4.75465 8.25954 4.505C7.83471 4.25672 7.57402 3.80224 7.57402 3.31672V2.75879H6.21747V3.31672C6.21747 3.80293 5.95678 4.25672 5.53747 4.50155C5.10712 4.75465 4.57885 4.75603 4.15471 4.50844L3.68919 4.23603L3.0085 5.42431L3.50161 5.7112C3.92023 5.95534 4.18023 6.40844 4.17885 6.89465C4.18023 7.385 3.92023 7.83879 3.50092 8.08293ZM6.89609 4.82775C8.03678 4.82775 8.96505 5.75603 8.96505 6.89672C8.96505 8.03741 8.03678 8.96569 6.89609 8.96569C5.7554 8.96569 4.82712 8.03741 4.82712 6.89672C4.82712 5.75603 5.7554 4.82775 6.89609 4.82775Z" fill="white"/>
<path d="M6.89669 7.58634C7.27757 7.58634 7.58634 7.27757 7.58634 6.89669C7.58634 6.5158 7.27757 6.20703 6.89669 6.20703C6.5158 6.20703 6.20703 6.5158 6.20703 6.89669C6.20703 7.27757 6.5158 7.58634 6.89669 7.58634Z" fill="white"/>
<path d="M30.3442 9.65494H34.4821C36.0035 9.65494 37.2407 8.4177 37.2407 6.89632C37.2407 5.37494 36.0035 4.1377 34.4821 4.1377C33.1207 4.1377 31.9773 5.11149 31.7635 6.45356L31.6283 7.30183L30.8297 6.98597C30.6779 6.92666 30.5152 6.89632 30.3442 6.89632C29.5835 6.89632 28.9648 7.51494 28.9648 8.27563C28.9648 9.03632 29.5835 9.65494 30.3442 9.65494Z" fill="white"/>
<path d="M33.1036 13.7931C36.9063 13.7931 40.0001 10.6993 40.0001 6.89655C40.0001 3.09379 36.9063 0 33.1036 0C29.3008 0 26.207 3.09379 26.207 6.89655C26.207 10.6993 29.3008 13.7931 33.1036 13.7931ZM30.345 5.51724C30.4236 5.51724 30.5022 5.52069 30.5794 5.5269C31.1457 3.8869 32.6884 2.75862 34.4829 2.75862C36.765 2.75862 38.6208 4.61448 38.6208 6.89655C38.6208 9.17862 36.765 11.0345 34.4829 11.0345H30.345C28.8236 11.0345 27.5863 9.79724 27.5863 8.27586C27.5863 6.75448 28.8236 5.51724 30.345 5.51724Z" fill="white"/>
<path d="M6.89655 26.207C3.09379 26.207 0 29.3008 0 33.1036C0 36.9063 3.09379 40.0001 6.89655 40.0001C10.6993 40.0001 13.7931 36.9063 13.7931 33.1036C13.7931 29.3008 10.6993 26.207 6.89655 26.207ZM11.7241 37.2415H2.06897V33.1036H3.44828V35.8622H4.82759V31.7243H6.2069V35.8622H7.58621V30.345H8.96552V35.8622H10.3448V28.9657H11.7241V37.2415Z" fill="white"/>
<path d="M33.1026 28.9658C31.2012 28.9658 29.6543 30.5127 29.6543 32.4141C29.6543 34.45 32.2033 37.2417 33.1026 37.2417C34.0019 37.2417 36.5508 34.45 36.5508 32.4141C36.5508 30.5127 35.004 28.9658 33.1026 28.9658ZM33.1026 34.4831C31.9619 34.4831 31.0336 33.5548 31.0336 32.4141C31.0336 31.2734 31.9619 30.3451 33.1026 30.3451C34.2433 30.3451 35.1715 31.2734 35.1715 32.4141C35.1715 33.5548 34.2433 34.4831 33.1026 34.4831Z" fill="white"/>
<path d="M33.1036 26.207C29.3008 26.207 26.207 29.3008 26.207 33.1036C26.207 36.9063 29.3008 40.0001 33.1036 40.0001C36.9063 40.0001 40.0001 36.9063 40.0001 33.1036C40.0001 29.3008 36.9063 26.207 33.1036 26.207ZM33.1036 38.6208C31.1636 38.6208 28.276 34.9084 28.276 32.4139C28.276 29.7519 30.4422 27.5863 33.1036 27.5863C35.765 27.5863 37.9312 29.7519 37.9312 32.4139C37.9312 34.9084 35.0436 38.6208 33.1036 38.6208Z" fill="white"/>
<path d="M33.1037 33.1039C33.4846 33.1039 33.7934 32.7952 33.7934 32.4143C33.7934 32.0334 33.4846 31.7246 33.1037 31.7246C32.7228 31.7246 32.4141 32.0334 32.4141 32.4143C32.4141 32.7952 32.7228 33.1039 33.1037 33.1039Z" fill="white"/>
<path d="M25.8287 15.1472L27.7625 13.2135C27.4108 12.9162 27.0846 12.59 26.7873 12.2383L24.8535 14.1721C25.2073 14.4666 25.5342 14.7935 25.8287 15.1472Z" fill="white"/>
<path d="M27.7625 26.7873L25.8287 24.8535C25.5335 25.2073 25.2073 25.5335 24.8535 25.8287L26.7873 27.7625C27.0852 27.4114 27.4114 27.0852 27.7625 26.7873Z" fill="white"/>
<path d="M14.1721 24.8535L12.2383 26.7873C12.59 27.0846 12.9162 27.4108 13.2135 27.7625L15.1472 25.8287C14.7935 25.5342 14.4666 25.2073 14.1721 24.8535Z" fill="white"/>
<path d="M12.2383 13.2135L14.1721 15.1472C14.4672 14.7935 14.7935 14.4672 15.1472 14.1721L13.2135 12.2383C12.9155 12.5893 12.5893 12.9155 12.2383 13.2135Z" fill="white"/>
</svg>
