<svg width="56" height="60" viewBox="0 0 56 60" fill="none" xmlns="http://www.w3.org/2000/svg">
<path d="M39.5547 36.2549L41.4 38.9281L43.2452 36.2549C42.0243 36.4862 40.7757 36.4862 39.5547 36.2549Z" fill="white"/>
<path d="M48.2912 38.1289L46.1374 42.8014C46.0149 43.0681 45.8399 43.3023 45.625 43.4875C45.41 43.6726 45.1603 43.8042 44.8934 43.8729C44.8108 43.891 44.7272 43.9028 44.643 43.9082L44.3828 45.0289L45.1665 49.2857H54.2154V47.1429C54.2154 41.4139 51.1232 39.075 48.2912 38.1289Z" fill="white"/>
<path d="M55.1998 51.4287H25.4902C25.579 52.139 25.6251 52.8548 25.6282 53.5716V54.643H55.1998V51.4287Z" fill="white"/>
<path d="M25.6306 58.929C25.6273 59.2948 25.566 59.6573 25.4492 60.0004H54.2165V56.7861H25.6306V58.929Z" fill="white"/>
<path d="M42.5623 46.0713H40.236L39.6445 49.2856H43.1537L42.5623 46.0713Z" fill="white"/>
<path d="M42.7935 43.1123L41.4006 42.0312L40.0078 43.1113L40.1971 43.9288H42.6042L42.7935 43.1123Z" fill="white"/>
<path d="M46.3041 37.6533C45.82 37.5787 45.3328 37.5308 44.8442 37.5098L42.7949 40.4798L44.4204 41.7409L46.3041 37.6533Z" fill="white"/>
<path d="M37.9579 37.5098C37.4694 37.5308 36.9821 37.5787 36.498 37.6533L38.3818 41.7409L40.0072 40.4798L37.9579 37.5098Z" fill="white"/>
<path d="M0.394649 42.348C1.46613 43.0862 5.61896 45.0009 11.829 45.0009C18.039 45.0009 22.1909 43.0862 23.2633 42.348C23.3625 42.2803 23.4473 42.1906 23.5124 42.0848C23.5774 41.979 23.6212 41.8595 23.6409 41.7341C23.663 41.6009 23.659 41.4641 23.6293 41.3327C23.5996 41.2012 23.5448 41.0781 23.4684 40.9712C21.5366 38.1062 20.5389 34.6228 20.6334 31.0722V26.7865C20.6397 24.2395 19.7163 21.7939 18.0657 19.9861C16.4151 18.1783 14.1722 17.156 11.829 17.1436C10.6713 17.1411 9.52485 17.3895 8.45655 17.8743C7.38824 18.359 6.41956 19.0704 5.60713 19.9668C4.78507 20.863 4.13379 21.9267 3.69062 23.0969C3.24745 24.2672 3.0211 25.521 3.02455 26.7865V31.0722C3.1181 34.6218 2.12018 38.104 0.188634 40.968C0.111491 41.0751 0.0560642 41.1987 0.0259945 41.3307C-0.0040753 41.4628 -0.00810799 41.6002 0.0141615 41.7341C0.034151 41.8598 0.0783873 41.9795 0.143964 42.0853C0.209541 42.1911 0.294974 42.2806 0.394649 42.348Z" fill="white"/>
<path d="M40.4151 11.7852C38.3243 11.7877 36.3199 12.6916 34.8416 14.2985C33.3632 15.9054 32.5316 18.0841 32.5293 20.3566V21.6188C32.5618 21.6059 32.5924 21.5877 32.6279 21.577C32.8148 20.7038 33.2559 19.9194 33.8856 19.3404C34.5153 18.7613 35.3 18.4184 36.1232 18.3627C37.8195 18.3219 39.4458 17.6199 40.7058 16.3848C40.8907 16.184 41.1414 16.0711 41.4027 16.0711C41.6641 16.0711 41.9148 16.184 42.0996 16.3848C43.3597 17.6198 44.986 18.3217 46.6823 18.3627C47.5055 18.4183 48.2903 18.7611 48.9201 19.3401C49.5498 19.9192 49.9908 20.7037 50.1776 21.577C50.2111 21.5877 50.2417 21.6059 50.2762 21.6188V20.3566C50.2738 18.0841 49.4423 15.9054 47.9639 14.2985C46.4856 12.6916 44.4811 11.7877 42.3904 11.7852H40.4151Z" fill="white"/>
<path d="M11.8286 15.0001C13.4187 15.0012 14.9886 15.3863 16.425 16.1275C17.8614 16.8687 19.1283 17.9474 20.1343 19.2858H23.6573C23.9187 19.2858 24.1694 19.1729 24.3543 18.972C24.5391 18.7711 24.643 18.4985 24.643 18.2144V13.9286C24.643 13.7529 24.6827 13.5799 24.7587 13.4249C24.8346 13.2698 24.9445 13.1374 25.0787 13.0394L29.4848 9.82505C29.5126 9.80544 29.5351 9.77834 29.5503 9.74642C29.5655 9.71449 29.5729 9.67883 29.5716 9.64291C29.5729 9.60805 29.5659 9.57341 29.5515 9.54228C29.537 9.51115 29.5154 9.48457 29.4888 9.46505L25.0767 6.25075C24.9424 6.15206 24.8325 6.01888 24.7569 5.86301C24.6812 5.70715 24.6421 5.5334 24.643 5.35717V1.07143C24.643 0.787272 24.5391 0.514749 24.3543 0.313816C24.1694 0.112883 23.9187 0 23.6573 0H0.98572C0.72429 0 0.473569 0.112883 0.288711 0.313816C0.103852 0.514749 0 0.787272 0 1.07143V18.2144C0 18.4985 0.103852 18.7711 0.288711 18.972C0.473569 19.1729 0.72429 19.2858 0.98572 19.2858H3.51902C3.73588 18.9997 3.96456 18.7212 4.20902 18.4555C5.20432 17.3583 6.39073 16.4877 7.69898 15.8944C9.00722 15.3012 10.4111 14.9971 11.8286 15.0001ZM3.94288 3.2143H20.7001C20.9615 3.2143 21.2123 3.32719 21.3971 3.52812C21.582 3.72905 21.6858 4.00157 21.6858 4.28574C21.6858 4.5699 21.582 4.84242 21.3971 5.04336C21.2123 5.24429 20.9615 5.35717 20.7001 5.35717H3.94288C3.68145 5.35717 3.43073 5.24429 3.24587 5.04336C3.06101 4.84242 2.95716 4.5699 2.95716 4.28574C2.95716 4.00157 3.06101 3.72905 3.24587 3.52812C3.43073 3.32719 3.68145 3.2143 3.94288 3.2143ZM3.94288 7.50004H20.7001C20.9615 7.50004 21.2123 7.61292 21.3971 7.81386C21.582 8.01479 21.6858 8.28731 21.6858 8.57147C21.6858 8.85564 21.582 9.12816 21.3971 9.32909C21.2123 9.53003 20.9615 9.64291 20.7001 9.64291H3.94288C3.68145 9.64291 3.43073 9.53003 3.24587 9.32909C3.06101 9.12816 2.95716 8.85564 2.95716 8.57147C2.95716 8.28731 3.06101 8.01479 3.24587 7.81386C3.43073 7.61292 3.68145 7.50004 3.94288 7.50004ZM2.95716 12.8572C2.95716 12.573 3.06101 12.3005 3.24587 12.0996C3.43073 11.8987 3.68145 11.7858 3.94288 11.7858H7.88576C8.14719 11.7858 8.39791 11.8987 8.58277 12.0996C8.76762 12.3005 8.87148 12.573 8.87148 12.8572C8.87148 13.1414 8.76762 13.4139 8.58277 13.6148C8.39791 13.8158 8.14719 13.9286 7.88576 13.9286H3.94288C3.68145 13.9286 3.43073 13.8158 3.24587 13.6148C3.06101 13.4139 2.95716 13.1414 2.95716 12.8572Z" fill="white"/>
<path d="M38.4204 45.0279L38.1602 43.9039C38.0761 43.9002 37.9924 43.8894 37.9098 43.8718C37.643 43.8031 37.3932 43.6715 37.1783 43.4864C36.9633 43.3013 36.7884 43.0671 36.6659 42.8004L34.5121 38.1289C31.6801 39.075 28.5879 41.4139 28.5879 47.1429V49.2857H37.6368L38.4204 45.0279Z" fill="white"/>
<path d="M33.515 25.714C33.7764 25.714 34.0272 25.8269 34.212 26.0279C34.3969 26.2288 34.5007 26.5013 34.5007 26.7855C34.5007 27.0919 34.6161 34.2855 41.4008 34.2855C48.1855 34.2855 48.3008 27.0887 48.3008 26.7855C48.3008 26.5013 48.4047 26.2288 48.5895 26.0279C48.7744 25.8269 49.0251 25.714 49.2865 25.714C49.548 25.714 49.7987 25.6012 49.9835 25.4002C50.1684 25.1993 50.2722 24.9268 50.2722 24.6426C50.2722 24.3584 50.1684 24.0859 49.9835 23.885C49.7987 23.6841 49.548 23.5712 49.2865 23.5712C49.0251 23.5712 48.7744 23.4583 48.5895 23.2574C48.4047 23.0564 48.3008 22.7839 48.3008 22.4997C48.2981 21.9884 48.1165 21.4973 47.7928 21.1262C47.4692 20.755 47.0277 20.5317 46.5581 20.5015C44.6993 20.4324 42.9026 19.7578 41.4008 18.5654C39.899 19.758 38.1022 20.4326 36.2435 20.5015C35.7738 20.5317 35.3324 20.755 35.0087 21.1262C34.685 21.4973 34.5034 21.9884 34.5007 22.4997C34.5007 22.7839 34.3969 23.0564 34.212 23.2574C34.0272 23.4583 33.7764 23.5712 33.515 23.5712C33.2536 23.5712 33.0029 23.6841 32.818 23.885C32.6331 24.0859 32.5293 24.3584 32.5293 24.6426C32.5293 24.9268 32.6331 25.1993 32.818 25.4002C33.0029 25.6012 33.2536 25.714 33.515 25.714Z" fill="white"/>
<path d="M0 58.928C0 59.2122 0.103852 59.4847 0.288711 59.6857C0.473569 59.8866 0.72429 59.9995 0.98572 59.9995H22.6715C22.933 59.9995 23.1837 59.8866 23.3686 59.6857C23.5534 59.4847 23.6573 59.2122 23.6573 58.928V53.5709C23.6573 50.0351 22.6548 47.5033 20.6242 45.8223C17.7655 46.7169 14.8035 47.1614 11.8286 47.1423C8.8538 47.1614 5.89181 46.7169 3.03306 45.8223C1.00248 47.5033 0 50.0351 0 53.5709V58.928Z" fill="white"/>
</svg>
