<svg width="55" height="60" viewBox="0 0 55 60" fill="none" xmlns="http://www.w3.org/2000/svg">
<path d="M12.2672 21.0973L14.95 21.4327C15.2719 22.949 15.8218 24.4069 16.5865 25.7192L14.8963 28.0229C14.4537 28.6352 14.5074 29.4956 15.0037 30.0349L16.8547 32.0471C17.351 32.5865 18.1424 32.6448 18.7059 32.1636L20.8252 30.3265C22.0324 31.1576 23.3738 31.7555 24.7689 32.1053L25.0773 35.0213C25.1577 35.7941 25.748 36.3627 26.459 36.3627H29.0612C29.7722 36.3627 30.3624 35.7941 30.4428 35.0213L30.7513 32.1053C32.1464 31.7554 33.4878 31.1576 34.695 30.3265L36.8144 32.1636C37.3777 32.6448 38.1692 32.5865 38.6655 32.0471L40.5166 30.0349C41.0129 29.4955 41.0665 28.6352 40.6239 28.0228L38.9338 25.7193C39.6984 24.4069 40.2483 22.949 40.5702 21.4326L43.253 21.0973C43.964 21.0099 44.487 20.3683 44.487 19.5955V16.767C44.487 15.9945 43.9638 15.3529 43.253 15.2654L40.5702 14.9298C40.2482 13.4136 39.6984 11.9556 38.9338 10.6433L40.6239 8.33987C41.0665 7.72743 41.0129 6.86722 40.5166 6.32774L38.6655 4.31561C38.1691 3.77613 37.3777 3.71786 36.8144 4.19907L34.695 6.03615C33.4878 5.20507 32.1465 4.60732 30.7513 4.25734L30.4428 1.34142C30.3623 0.568617 29.7722 0 29.0612 0H26.459C25.748 0 25.1579 0.568617 25.0773 1.34142L24.7689 4.25734C23.3737 4.60732 22.0324 5.20507 20.8252 6.03615L18.7058 4.19907C18.1424 3.71786 17.3509 3.77625 16.8547 4.31585L15.0037 6.32786C14.5074 6.86734 14.4537 7.72755 14.8963 8.33998L16.5865 10.6435C15.8219 11.9557 15.2719 13.4138 14.95 14.9302L12.2672 15.2655C11.5562 15.353 11.0332 15.9945 11.0332 16.7673V19.5958C11.0332 20.3683 11.5562 21.0099 12.2672 21.0973ZM22.9948 13.0167C25.6265 10.156 29.8834 10.156 32.5151 13.0167C35.1293 15.8581 35.1293 20.5043 32.5151 23.3457C29.8834 26.2064 25.6265 26.2064 22.9948 23.3457C20.363 20.5043 20.363 15.8582 22.9948 13.0167Z" fill="white"/>
<path d="M14.3244 49.908L16.1449 47.8974L14.7884 47.9994C13.6404 48.1242 12.4781 47.1928 12.5217 45.8356C12.5745 42.7142 13.6374 39.5867 15.3816 37.2314C10.7776 38.5846 6.86087 39.4272 6.46733 39.4272C2.61511 41.0358 0.917969 44.4569 0.917969 47.7378V54.6378C0.917969 57.5994 3.12591 59.9995 5.85655 59.9995H17.2372C15.6575 57.3123 14.4361 54.5612 13.749 52.1676C13.5081 51.3953 13.7255 50.5145 14.3244 49.908Z" fill="white"/>
<path d="M49.0726 39.4273C49.0139 39.4273 41.0392 37.2572 40.9806 37.2378C40.6224 37.1422 40.27 37.0464 39.9235 36.957C40.0116 37.0592 40.0938 37.1677 40.1701 37.2762C41.9201 39.6508 42.9536 42.7784 43.0006 45.8549C43.0455 47.2034 41.8316 48.1473 40.7457 47.9997L39.3775 47.8976L41.233 49.9465C41.7909 50.5147 42.0141 51.3891 41.7674 52.1934C41.0921 54.5615 39.8647 57.3126 38.2852 59.9997H49.6598C52.3845 59.9997 54.6043 57.5997 54.6043 54.6381V47.7316C54.6042 43.9466 52.3787 40.6211 49.0726 39.4273Z" fill="white"/>
<path d="M21.4493 37.5513C21.4253 45.2626 27.5434 59.6797 27.6622 60.0001H27.8618C29.1255 56.5912 34.1354 44.5924 34.0983 37.5449C30.7125 41.6964 24.7316 41.6285 21.4493 37.5513Z" fill="white"/>
<path d="M20.3828 35.8892C20.3828 35.8618 20.3828 35.8435 20.3912 35.8161V35.8072C20.3912 35.7796 20.3997 35.7523 20.408 35.7159C20.4751 35.3054 20.0807 34.9769 19.7198 35.1319C18.8089 35.5612 17.8563 36.2908 17.5712 36.6008C15.1541 38.8449 13.7525 42.4848 13.6938 45.8784C13.677 46.4076 14.147 46.7633 14.7094 46.7267L19.1491 46.3984L15.129 50.8412C14.8689 51.1058 14.7681 51.4616 14.8689 51.7901C15.4899 53.9612 16.7153 56.8621 18.6372 60.0004H26.367C23.7483 53.8331 19.5267 41.6638 20.3828 35.8892Z" fill="white"/>
<path d="M40.3921 50.8411L36.372 46.3983L40.8118 46.7267C41.3742 46.7631 41.8441 46.4075 41.8274 45.8783C41.7854 43.1506 40.8706 40.2679 39.2508 38.0695C38.806 37.4583 38.3108 36.911 37.7653 36.4274C37.7233 36.391 37.6897 36.3635 37.6478 36.3361C37.0771 35.8526 36.4728 35.4421 35.8014 35.1318C35.4405 34.977 35.046 35.3055 35.1132 35.7158C35.1216 35.7431 35.1299 35.7706 35.1384 35.8071V35.8253C35.1467 35.8616 35.1467 35.9073 35.1551 35.9437C36.0493 41.7738 31.4406 54.5974 29.1543 60.0002H36.884C38.806 56.8619 40.0313 53.961 40.6524 51.7899C40.7531 51.4615 40.6524 51.1057 40.3921 50.8411Z" fill="white"/>
</svg>
