<svg width="47" height="60" viewBox="0 0 47 60" fill="none" xmlns="http://www.w3.org/2000/svg">
<path d="M28.0817 58.9281V51.9199C27.8471 52.2971 27.6243 52.6699 27.4104 53.0256C25.8441 55.642 24.4917 57.8995 21.0694 57.8995H16.3971C12.9747 57.8995 11.6223 55.642 10.056 53.0256C9.84213 52.6678 9.61936 52.2971 9.38477 51.9199V58.9281C9.38477 59.5198 9.82608 59.9995 10.3705 59.9995H27.0989C27.6422 59.9977 28.0817 59.5186 28.0817 58.9281Z" fill="white"/>
<path d="M2.55872 33.407C2.53811 31.9868 2.38988 30.5722 2.11614 29.1834C1.78713 27.3377 1.55675 25.4728 1.42614 23.5981C1.13043 23.1449 0.585332 22.6059 0.305391 22.6392C-0.0267929 23.2734 -0.101707 25.9306 0.148663 28.4763C0.480438 30.3479 1.31978 32.0688 2.55872 33.4177V33.407Z" fill="white"/>
<path d="M16.4456 4.31463C15.4345 4.49705 14.7206 5.49121 14.8034 6.60166C14.8862 7.7121 15.738 8.56834 16.763 8.57139H24.6486C25.7374 8.57139 26.6201 7.61201 26.6201 6.42855C26.6165 5.48811 26.053 4.65847 25.2273 4.37784C24.7135 4.20702 24.4202 3.62044 24.5678 3.05892C24.6228 2.84808 24.65 2.62984 24.6486 2.41071C24.647 1.08047 23.6556 0.00236909 22.4318 8.53902e-06C21.5951 -0.00241237 20.8292 0.5101 20.4545 1.32322C20.3335 1.58399 20.1199 1.7798 19.863 1.86536C19.6063 1.94972 19.3291 1.91805 19.0942 1.7775C18.7121 1.54502 18.2453 1.54984 17.8673 1.79018C17.4893 2.03052 17.2567 2.47044 17.2558 2.94642C17.2546 2.99369 17.2569 3.04098 17.2627 3.08785C17.3485 3.67182 16.9828 4.2209 16.4456 4.31463Z" fill="white"/>
<path d="M3.3664 13.4844C2.98394 22.3836 3.57832 25.9418 4.05639 28.8057C4.35279 30.3209 4.51192 31.864 4.5315 33.4128C4.5315 34.2432 4.49799 35.0543 4.46448 35.8514C4.3038 39.7032 4.17665 42.7449 7.73309 46.4135C9.25917 48.0436 10.595 49.8716 11.7104 51.8563C13.3299 54.5606 14.1402 55.7563 16.3985 55.7563H21.0707C23.329 55.7563 24.1392 54.5606 25.7587 51.8563C26.8741 49.8693 28.2103 48.0391 29.7371 46.4071C33.2925 42.7331 33.1693 39.6957 33.0136 35.8493L32.9988 35.4882C32.9594 34.8239 32.9387 34.1275 32.9387 33.4064C32.9584 31.854 33.1175 30.3074 33.4138 28.7886C33.5616 27.9004 33.7243 26.9168 33.8652 25.7136H25.6345C21.8256 25.7089 18.7389 22.3538 18.7346 18.2136C18.7438 15.283 20.3129 12.623 22.7592 11.3908C22.7287 11.1701 22.7277 10.9397 22.7139 10.7137H16.7632C14.8669 10.7167 13.2372 9.25214 12.8836 7.22713C12.53 5.20213 13.5527 3.19036 15.3181 2.438C15.4288 1.62962 15.7981 0.88949 16.361 0.347656C15.3221 0.45066 14.2917 0.63833 13.2787 0.909082C8.93861 2.30193 3.69759 5.61584 3.3664 13.4844Z" fill="white"/>
<path d="M24.6785 10.7137C24.703 11.0711 24.7588 11.4252 24.8451 11.7712C24.9932 12.3334 24.6993 12.9208 24.1846 13.0912C22.1206 13.7907 20.7117 15.8636 20.7031 18.2137C20.7064 21.1708 22.9111 23.5672 25.6317 23.5708H41.403C43.9656 23.5621 46.0945 21.4202 46.3002 18.6437C46.506 15.8673 44.7199 13.3827 42.1916 12.9283C41.6552 12.8341 41.2902 12.2859 41.3754 11.7026C41.3951 11.5525 41.4044 11.401 41.403 11.2494C41.403 9.17835 39.8584 7.49942 37.953 7.49942C37.3612 7.5005 36.7793 7.66453 36.2616 7.97621C36.027 8.11755 35.7495 8.14887 35.4932 8.06294C35.2369 7.97702 35.0238 7.78127 34.9032 7.52085C34.0478 5.67591 32.3634 4.4553 30.4676 4.30658C30.3394 4.2948 30.2034 4.28516 30.0674 4.28516C29.4385 4.29019 28.8152 4.41343 28.2251 4.64944C28.7884 5.96843 28.695 7.50842 27.9773 8.73562C27.2595 9.96282 26.0163 10.7083 24.6785 10.7137ZM41.403 19.2851C41.9474 19.2851 42.3887 19.7648 42.3887 20.3565C42.3887 20.9482 41.9474 21.4279 41.403 21.4279H25.6317C25.0873 21.4279 24.646 20.9482 24.646 20.3565C24.646 19.7648 25.0873 19.2851 25.6317 19.2851H41.403Z" fill="white"/>
<path d="M37.4621 25.7148H35.8485C35.6957 27.0895 35.5163 28.192 35.3557 29.1723C35.0815 30.5651 34.9329 31.9836 34.9121 33.4077V33.4291C36.1638 32.0711 37.0054 30.3311 37.3251 28.4405C37.3251 28.4405 37.4474 27.1398 37.4621 25.7148Z" fill="white"/>
</svg>
