<svg width="40" height="40" viewBox="0 0 40 40" fill="none" xmlns="http://www.w3.org/2000/svg">
<path d="M2.14258 15.7139H3.57115V17.1424H2.14258V15.7139Z" fill="white"/>
<path d="M2.14258 21.4287H3.57115V22.8573H2.14258V21.4287Z" fill="white"/>
<path d="M2.14258 18.5713H3.57115V19.9999H2.14258V18.5713Z" fill="white"/>
<path d="M2.14258 12.8574H3.57115V14.286H2.14258V12.8574Z" fill="white"/>
<path d="M5 21.4287H6.42857V22.8573H5V21.4287Z" fill="white"/>
<path d="M2.14258 10H3.57115V11.4286H2.14258V10Z" fill="white"/>
<path d="M5 24.2861H6.42857V25.7147H5V24.2861Z" fill="white"/>
<path d="M18.8884 34.2861L18.0312 37.1433H21.9684L21.1113 34.2861H18.8884Z" fill="white"/>
<path d="M2.14258 24.2861H3.57115V25.7147H2.14258V24.2861Z" fill="white"/>
<path d="M20.0008 6.42843C20.7898 6.42843 21.4294 5.78884 21.4294 4.99986C21.4294 4.21088 20.7898 3.57129 20.0008 3.57129C19.2119 3.57129 18.5723 4.21088 18.5723 4.99986C18.5723 5.78884 19.2119 6.42843 20.0008 6.42843Z" fill="white"/>
<path d="M24.2852 38.5713H15.7138C14.7826 38.5713 13.9882 39.1684 13.6934 39.9999H26.3057C26.0109 39.1684 25.2165 38.5713 24.2852 38.5713Z" fill="white"/>
<path d="M15.9591 5.71429C16.2619 5.71429 16.5317 5.90509 16.6326 6.19054C16.6755 6.31223 16.724 6.42955 16.7764 6.5392C16.9071 6.8125 16.8513 7.13839 16.6371 7.35259L15.9593 8.03045L16.9695 9.04063L17.6473 8.36277C17.8616 8.14857 18.1875 8.09277 18.4607 8.22348C18.5704 8.27589 18.6877 8.32438 18.8094 8.36732C19.0948 8.46821 19.2856 8.73804 19.2856 9.0408V10H20.7142V9.04089C20.7142 8.73812 20.905 8.4683 21.1904 8.36741C21.3121 8.32446 21.4295 8.27598 21.5391 8.22357C21.8125 8.09277 22.1384 8.14866 22.3525 8.36286L23.0304 9.04071L24.0404 8.03063L23.3626 7.35277C23.1484 7.13866 23.0926 6.81268 23.2233 6.53937C23.2757 6.42973 23.3242 6.31241 23.3671 6.19071C23.468 5.90527 23.7379 5.71446 24.0406 5.71446H25V4.28571H24.0409C23.7381 4.28571 23.4683 4.09491 23.3674 3.80946C23.3245 3.68777 23.276 3.57045 23.2236 3.4608C23.0929 3.1875 23.1487 2.86161 23.3629 2.64741L24.0407 1.96955L23.0306 0.959464L22.3528 1.63732C22.1386 1.85143 21.8127 1.90714 21.5394 1.77661C21.4297 1.7242 21.3124 1.67571 21.1907 1.63277C20.9053 1.53187 20.7145 1.26205 20.7145 0.959286V0H19.2859V0.959107C19.2859 1.26188 19.0951 1.5317 18.8096 1.63259C18.6879 1.67554 18.5706 1.72402 18.461 1.77643C18.1878 1.90714 17.8618 1.85143 17.6476 1.63714L16.9697 0.959286L15.9596 1.96938L16.6374 2.64723C16.8516 2.86143 16.9074 3.18741 16.7767 3.46063C16.7243 3.57027 16.6758 3.68759 16.6329 3.80929C16.532 4.09473 16.2621 4.28554 15.9594 4.28554H15V5.71411H15.0338H15.9591V5.71429ZM20 2.14286C21.5754 2.14286 22.8571 3.42455 22.8571 5C22.8571 6.57545 21.5754 7.85714 20 7.85714C18.4246 7.85714 17.1429 6.57545 17.1429 5C17.1429 3.42455 18.4246 2.14286 20 2.14286Z" fill="white"/>
<path d="M0 32.2321C0 32.5768 0.280357 32.8571 0.625 32.8571H39.375C39.7196 32.8571 40 32.5768 40 32.2321V30H0V32.2321Z" fill="white"/>
<path d="M5 18.5713H6.42857V19.9999H5V18.5713Z" fill="white"/>
<path d="M39.375 7.14258H25.7143H25.1733L25.5558 7.52517C25.6897 7.6591 25.765 7.84079 25.765 8.03026C25.765 8.21972 25.6897 8.40142 25.5558 8.53535L23.5355 10.5556C23.2566 10.8345 22.8044 10.8346 22.5254 10.5556L22.1429 10.173V10.714C22.1429 11.1085 21.823 11.4283 21.4286 11.4283H18.5714C18.177 11.4283 17.8571 11.1085 17.8571 10.714V10.173L17.4746 10.5555C17.1957 10.8345 16.7435 10.8345 16.4646 10.5555L14.4443 8.53526C14.1653 8.25633 14.1653 7.8041 14.4443 7.52517L14.8268 7.14267H14.2857H0.625C0.280357 7.14267 0 7.42302 0 7.76767V28.5712H40V7.76758C40 7.42294 39.7196 7.14258 39.375 7.14258ZM7.85714 26.4283C7.85714 26.8228 7.53732 27.1426 7.14286 27.1426H1.42857C1.03411 27.1426 0.714286 26.8228 0.714286 26.4283V9.28544C0.714286 8.89097 1.03411 8.57115 1.42857 8.57115H7.14286C7.53732 8.57115 7.85714 8.89097 7.85714 9.28544V26.4283ZM27.8571 23.5711C27.8571 23.8417 27.7043 24.089 27.4623 24.21L20.3755 27.7502C20.2608 27.8211 20.1305 27.8569 20 27.8569C19.8908 27.8569 19.7814 27.8319 19.6806 27.7814L12.5378 24.21C12.2957 24.089 12.1429 23.8417 12.1429 23.5711V16.4283C12.1429 16.1808 12.2711 15.9508 12.4816 15.8207L19.6805 12.218C19.8816 12.1175 20.1183 12.1175 20.3194 12.218L27.5183 15.8207C27.7288 15.9509 27.8571 16.1808 27.8571 16.4283V23.5711H27.8571ZM39.2857 26.4283C39.2857 26.8228 38.9659 27.1426 38.5714 27.1426H31.4286C31.0341 27.1426 30.7143 26.8228 30.7143 26.4283V19.2854C30.7143 18.891 31.0341 18.5711 31.4286 18.5711H38.5714C38.9659 18.5711 39.2857 18.891 39.2857 19.2854V26.4283ZM39.2857 16.4283C39.2857 16.8228 38.9659 17.1426 38.5714 17.1426H31.4286C31.0341 17.1426 30.7143 16.8228 30.7143 16.4283V9.28544C30.7143 8.89097 31.0341 8.57115 31.4286 8.57115H38.5714C38.9659 8.57115 39.2857 8.89097 39.2857 9.28544V16.4283Z" fill="white"/>
<path d="M32.1426 22.1426H37.8569V25.714H32.1426V22.1426Z" fill="white"/>
<path d="M20.7148 25.9868L26.4291 23.1297V17.584L20.7148 20.3562V25.9868Z" fill="white"/>
<path d="M32.1426 20H37.8569V20.7143H32.1426V20Z" fill="white"/>
<path d="M32.1426 12.1426H37.8569V15.714H32.1426V12.1426Z" fill="white"/>
<path d="M32.1426 10H37.8569V10.7143H32.1426V10Z" fill="white"/>
<path d="M13.5723 23.1297L19.2866 25.9868V20.4411L13.5723 17.584V23.1297Z" fill="white"/>
<path d="M5 12.8574H6.42857V14.286H5V12.8574Z" fill="white"/>
<path d="M20.0008 13.6553L14.4551 16.4281L20.1141 19.2577L25.5465 16.4281L20.0008 13.6553Z" fill="white"/>
<path d="M5 10H6.42857V11.4286H5V10Z" fill="white"/>
<path d="M5 15.7139H6.42857V17.1424H5V15.7139Z" fill="white"/>
<path d="M3.78032 4.7908C3.91979 4.93027 4.10264 5 4.28541 5C4.46818 5 4.65104 4.93027 4.7905 4.7908L6.21907 3.36223C6.49809 3.0833 6.49809 2.63107 6.21907 2.35214C5.94014 2.07321 5.48791 2.07321 5.20898 2.35214L4.9997 2.56134V1.42857H12.1426C12.537 1.42857 12.8568 1.10875 12.8568 0.714286C12.8568 0.319821 12.537 0 12.1426 0H4.28541C3.89095 0 3.57113 0.319821 3.57113 0.714286V2.56134L3.36193 2.35214C3.083 2.07321 2.63077 2.07321 2.35184 2.35214C2.07282 2.63107 2.07282 3.0833 2.35184 3.36223L3.78032 4.7908Z" fill="white"/>
<path d="M27.8569 1.42857H34.9997V2.56134L34.7905 2.35214C34.5116 2.07321 34.0594 2.07321 33.7804 2.35214C33.5014 2.63107 33.5014 3.0833 33.7804 3.36223L35.209 4.7908C35.3484 4.93027 35.5312 5 35.714 5C35.8968 5 36.0796 4.93027 36.2191 4.7908L37.6477 3.36223C37.9267 3.0833 37.9267 2.63107 37.6477 2.35214C37.3687 2.07321 36.9165 2.07321 36.6376 2.35214L36.4283 2.56134V0.714286C36.4283 0.319821 36.1085 0 35.714 0H27.8569C27.4624 0 27.1426 0.319821 27.1426 0.714286C27.1426 1.10875 27.4624 1.42857 27.8569 1.42857Z" fill="white"/>
</svg>
