<svg width="39" height="40" viewBox="0 0 39 40" fill="none" xmlns="http://www.w3.org/2000/svg">
<path d="M31.7241 22.069H15.1723C15.0369 22.0693 14.9046 22.0284 14.793 21.9517L10.6551 19.1931C10.5598 19.1311 10.4814 19.0463 10.4272 18.9463C10.3729 18.8464 10.3445 18.7344 10.3445 18.6207C10.3445 18.507 10.3729 18.395 10.4272 18.2951C10.4814 18.1951 10.5598 18.1103 10.6551 18.0483L14.793 15.2897C14.9046 15.213 15.0369 15.1721 15.1723 15.1724H31.7241V5.51724H27.5861C27.4032 5.51724 27.2278 5.44458 27.0985 5.31525C26.9691 5.18591 26.8965 5.01049 26.8965 4.82759V0H6.89648V23.4483H31.7241V22.069ZM8.96545 2.75862H24.8275V4.13793H8.96545V2.75862ZM8.96545 5.51724H24.8275V6.89655H8.96545V5.51724ZM8.96545 8.27586H29.6551V9.65517H8.96545V8.27586ZM8.96545 11.0345H29.6551V12.4138H8.96545V11.0345Z" fill="white"/>
<path d="M15.5788 17.2416L15.0823 16.752L12.2754 18.6209L15.0823 20.4899L15.5788 20.0002L14.6823 19.1106C14.5531 18.9804 14.4806 18.8044 14.4806 18.6209C14.4806 18.4375 14.5531 18.2615 14.6823 18.1313L15.5788 17.2416Z" fill="white"/>
<path d="M29.6616 2.75906H29.6547V2.74527L28.2754 1.17285V4.13837H30.8754L29.6616 2.75906Z" fill="white"/>
<path d="M35.8613 23.4483H37.2406V21.7793C36.8061 21.9709 36.3363 22.0696 35.8613 22.069V23.4483Z" fill="white"/>
<path d="M21.3785 35.8617V34.4824H17.2406V35.8617C17.24 35.9753 17.2113 36.087 17.1572 36.1869C17.1031 36.2867 17.0251 36.3717 16.9302 36.4341L16.7578 36.5514H21.8613L21.6888 36.4341C21.594 36.3717 21.516 36.2867 21.4619 36.1869C21.4077 36.087 21.3791 35.9753 21.3785 35.8617Z" fill="white"/>
<path d="M35.172 4.1381C35.3549 4.1381 35.5303 4.21076 35.6596 4.34009C35.789 4.46943 35.8616 4.64485 35.8616 4.82775V15.1726C36.3365 15.172 36.8064 15.2706 37.2409 15.4622V3.44844C37.2409 3.26554 37.1683 3.09012 37.0389 2.96078C36.9096 2.83145 36.7342 2.75879 36.5513 2.75879H31.4961L32.7099 4.1381H35.172Z" fill="white"/>
<path d="M34.4824 16.5518V20.6897H35.8617C36.4105 20.6897 36.9367 20.4717 37.3247 20.0837C37.7127 19.6957 37.9307 19.1694 37.9307 18.6207C37.9307 18.072 37.7127 17.5457 37.3247 17.1577C36.9367 16.7697 36.4105 16.5518 35.8617 16.5518H34.4824Z" fill="white"/>
<path d="M16.8342 20.6897H30.3445V16.5518H16.8342L17.0411 16.7518C17.1703 16.882 17.2428 17.058 17.2428 17.2414C17.2428 17.4249 17.1703 17.6009 17.0411 17.7311L16.1445 18.6207L17.0411 19.5104C17.1703 19.6406 17.2428 19.8166 17.2428 20C17.2428 20.1835 17.1703 20.3595 17.0411 20.4897L16.8342 20.6897Z" fill="white"/>
<path d="M23.4483 29.6892V27.9306C23.4483 27.4733 23.63 27.0348 23.9533 26.7114C24.2767 26.3881 24.7152 26.2065 25.1725 26.2065C25.3826 26.2067 25.5908 26.2465 25.7863 26.3237C25.9708 26.029 26.2403 25.7971 26.5592 25.6586C26.8782 25.5202 27.2316 25.4816 27.573 25.5481C27.9143 25.6146 28.2274 25.7829 28.4711 26.0309C28.7148 26.279 28.8776 26.5951 28.938 26.9375C29.0601 26.9094 29.1851 26.8955 29.3104 26.8961C29.7149 26.8963 30.1065 27.0387 30.4167 27.2984C30.7268 27.5581 30.9358 27.9186 31.007 28.3168C31.1291 28.2887 31.2541 28.2748 31.3794 28.2754C31.8366 28.2754 32.2752 28.4571 32.5985 28.7804C32.9219 29.1037 33.1035 29.5423 33.1035 29.9996V33.103H38.5173L37.3311 24.8271H1.28972L0.103516 33.103H5.51731V29.9996C5.51731 29.5423 5.69896 29.1037 6.0223 28.7804C6.34564 28.4571 6.78418 28.2754 7.24145 28.2754C7.36677 28.2748 7.49174 28.2887 7.61386 28.3168C7.68506 27.9186 7.89401 27.5581 8.20415 27.2984C8.5143 27.0387 8.90589 26.8963 9.31041 26.8961C9.43573 26.8955 9.5607 26.9094 9.68283 26.9375C9.74325 26.5951 9.90604 26.279 10.1497 26.0309C10.3934 25.7829 10.7066 25.6146 11.0479 25.5481C11.3892 25.4816 11.7426 25.5202 12.0616 25.6586C12.3805 25.7971 12.65 26.029 12.8346 26.3237C13.03 26.2465 13.2382 26.2067 13.4483 26.2065C13.9056 26.2065 14.3442 26.3881 14.6675 26.7114C14.9908 27.0348 15.1725 27.4733 15.1725 27.9306V29.6892C15.2861 29.6672 15.4016 29.6556 15.5173 29.6547C15.9746 29.6547 16.4131 29.8364 16.7365 30.1597C17.0598 30.4831 17.2414 30.9216 17.2414 31.3789V33.103H21.3794V31.3789C21.3794 30.9216 21.561 30.4831 21.8844 30.1597C22.2077 29.8364 22.6462 29.6547 23.1035 29.6547C23.2193 29.6556 23.3347 29.6672 23.4483 29.6892V29.6892Z" fill="white"/>
<path d="M15.5172 31.0344C15.4257 31.0344 15.338 31.0707 15.2733 31.1354C15.2087 31.2001 15.1723 31.2878 15.1723 31.3792V33.1034H13.793V27.931C13.793 27.8395 13.7567 27.7518 13.692 27.6871C13.6274 27.6225 13.5397 27.5861 13.4482 27.5861C13.3568 27.5861 13.269 27.6225 13.2044 27.6871C13.1397 27.7518 13.1034 27.8395 13.1034 27.931V31.0344H11.7241V27.2413C11.7241 27.1499 11.6877 27.0621 11.6231 26.9975C11.5584 26.9328 11.4707 26.8965 11.3792 26.8965C11.2878 26.8965 11.2001 26.9328 11.1354 26.9975C11.0707 27.0621 11.0344 27.1499 11.0344 27.2413V31.0344H9.65511V28.6206C9.65511 28.5292 9.61878 28.4415 9.55411 28.3768C9.48944 28.3121 9.40173 28.2758 9.31028 28.2758C9.21882 28.2758 9.13112 28.3121 9.06645 28.3768C9.00178 28.4415 8.96545 28.5292 8.96545 28.6206V31.7241H7.58614V29.9999C7.58614 29.9085 7.54981 29.8208 7.48514 29.7561C7.42047 29.6914 7.33277 29.6551 7.24131 29.6551C7.14986 29.6551 7.06215 29.6914 6.99748 29.7561C6.93281 29.8208 6.89648 29.9085 6.89648 29.9999V34.9654L8.15855 36.862C8.23524 36.9736 8.27613 37.1059 8.27579 37.2413V39.9999H13.793V37.2413C13.7936 37.1277 13.8223 37.016 13.8764 36.9162C13.9305 36.8163 14.0085 36.7314 14.1034 36.6689L15.862 35.4896V31.3792C15.862 31.2878 15.8257 31.2001 15.761 31.1354C15.6963 31.0707 15.6086 31.0344 15.5172 31.0344Z" fill="white"/>
<path d="M5.51724 35.1721V34.4824H0V36.5514H6.29655L5.63448 35.5514C5.5578 35.4398 5.51691 35.3075 5.51724 35.1721V35.1721Z" fill="white"/>
<path d="M4.13867 5.51758H5.51798V23.4486H4.13867V5.51758Z" fill="white"/>
<path d="M31.7246 16.5518H33.1039V20.6897H31.7246V16.5518Z" fill="white"/>
<path d="M31.3785 29.6551C31.287 29.6551 31.1993 29.6914 31.1347 29.7561C31.07 29.8208 31.0337 29.9085 31.0337 29.9999V31.7241H29.6544V28.6206C29.6544 28.5292 29.618 28.4415 29.5534 28.3768C29.4887 28.3121 29.401 28.2758 29.3095 28.2758C29.2181 28.2758 29.1304 28.3121 29.0657 28.3768C29.001 28.4415 28.9647 28.5292 28.9647 28.6206V31.0344H27.5854V27.2413C27.5854 27.1499 27.5491 27.0621 27.4844 26.9975C27.4197 26.9328 27.332 26.8965 27.2406 26.8965C27.1491 26.8965 27.0614 26.9328 26.9967 26.9975C26.9321 27.0621 26.8957 27.1499 26.8957 27.2413V31.0344H25.5164V27.931C25.5164 27.8395 25.4801 27.7518 25.4154 27.6871C25.3508 27.6225 25.2631 27.5861 25.1716 27.5861C25.0802 27.5861 24.9924 27.6225 24.9278 27.6871C24.8631 27.7518 24.8268 27.8395 24.8268 27.931V33.1034H23.4475V31.3792C23.4475 31.2878 23.4111 31.2001 23.3465 31.1354C23.2818 31.0707 23.1941 31.0344 23.1026 31.0344C23.0112 31.0344 22.9235 31.0707 22.8588 31.1354C22.7941 31.2001 22.7578 31.2878 22.7578 31.3792V35.4896L24.5164 36.6689C24.6113 36.7314 24.6893 36.8163 24.7434 36.9162C24.7976 37.016 24.8262 37.1277 24.8268 37.2413V39.9999H30.344V37.2413C30.3437 37.1059 30.3846 36.9736 30.4613 36.862L31.7233 34.9654V29.9999C31.7233 29.9085 31.687 29.8208 31.6223 29.7561C31.5577 29.6914 31.47 29.6551 31.3785 29.6551Z" fill="white"/>
<path d="M33.1035 34.4824V35.1721C33.1039 35.3075 33.063 35.4398 32.9863 35.5514L32.3242 36.5514H38.6208V34.4824H33.1035Z" fill="white"/>
<path d="M2.75822 4.82775C2.75822 4.64485 2.83088 4.46943 2.96021 4.34009C3.08955 4.21076 3.26496 4.1381 3.44787 4.1381H5.51684V2.75879H2.06856C1.88565 2.75879 1.71024 2.83145 1.5809 2.96078C1.45157 3.09012 1.37891 3.26554 1.37891 3.44844V23.4484H2.75822V4.82775Z" fill="white"/>
<path d="M33.1035 22.0693H34.4828V23.4486H33.1035V22.0693Z" fill="white"/>
<path d="M33.1035 5.51758H34.4828V15.1728H33.1035V5.51758Z" fill="white"/>
</svg>
