<svg width="42" height="41" viewBox="0 0 42 41" fill="none" xmlns="http://www.w3.org/2000/svg">
<path d="M40.5816 39.811H29.524C29.9229 39.811 30.2547 39.5117 30.2957 39.1149L31.3278 29.1214H30.0828L27.5183 31.5872C27.3937 31.707 27.2095 31.7406 27.0507 31.6731C26.8917 31.6054 26.7885 31.4494 26.7885 31.2765V29.1214H26.7023C25.2384 29.1214 23.9713 28.1575 23.5634 26.7832H10.9715C10.5171 26.7832 10.153 27.1866 10.1996 27.6387L10.3884 29.4662H14.1162C15.9225 29.4662 17.392 30.9358 17.392 32.7421C17.392 34.5483 15.9225 36.0179 14.1162 36.0179H14.03V38.1731C14.03 38.5456 13.5688 38.7419 13.3002 38.4838L11.1014 36.3695L11.3849 39.1149C11.4259 39.5118 11.7577 39.811 12.1566 39.811H1.099C0.860985 39.811 0.667969 40.0039 0.667969 40.242C0.667969 40.4801 0.860985 40.6731 1.099 40.6731H40.5816C40.8196 40.6731 41.0126 40.4801 41.0126 40.242C41.0126 40.0039 40.8196 39.811 40.5816 39.811ZM28.1053 35.2832L28.3722 32.6978C28.3967 32.461 28.6084 32.2898 28.8453 32.3134C29.0821 32.3378 29.2542 32.5496 29.2297 32.7864L28.9628 35.3718C28.9398 35.5935 28.7527 35.7585 28.5345 35.7585C28.5197 35.7585 28.5047 35.7577 28.4897 35.7563C28.2529 35.7318 28.0808 35.5201 28.1053 35.2832ZM27.8699 37.5615L27.9206 37.071C27.9451 36.8342 28.1571 36.6629 28.3936 36.6865C28.6304 36.711 28.8026 36.9227 28.7781 37.1595L28.7274 37.6501C28.7045 37.8718 28.5173 38.0368 28.2991 38.0368C28.2843 38.0368 28.2694 38.036 28.2543 38.0345C28.0176 38.01 27.8455 37.7983 27.8699 37.5615ZM20.8288 31.1419C22.0172 31.1419 22.984 32.1087 22.984 33.2971C22.984 34.4854 22.0172 35.4522 20.8288 35.4522C19.6405 35.4522 18.6737 34.4854 18.6737 33.2971C18.6737 32.1087 19.6405 31.1419 20.8288 31.1419Z" fill="white"/>
<path d="M20.8283 32.0039C20.1152 32.0039 19.5352 32.584 19.5352 33.297C19.5352 34.01 20.1152 34.5901 20.8283 34.5901C21.5413 34.5901 22.1214 34.01 22.1214 33.297C22.1214 32.584 21.5413 32.0039 20.8283 32.0039Z" fill="white"/>
<path d="M14.0293 25.9218H23.4269C23.4262 25.8965 23.426 25.8713 23.426 25.8462C23.426 24.2611 24.5574 22.9354 26.0552 22.6344C25.3431 21.855 24.4512 21.2644 23.4613 20.9189C23.4966 22.3869 22.3159 23.6651 20.8287 23.6651C19.3484 23.6651 18.1621 22.3912 18.1961 20.926C16.0126 21.695 14.4076 23.6154 14.0293 25.9218Z" fill="white"/>
<path d="M20.8265 7.36426C19.7785 7.36426 18.2347 7.56107 17.0666 8.54537C15.8951 9.53261 15.3172 11.1271 15.3489 13.2847C15.3721 14.8663 16.0035 15.4194 16.4548 15.6127V13.1317C16.4548 12.9726 16.5425 12.8264 16.6829 12.7515C17.6635 12.2279 18.4886 11.4486 19.0693 10.4977C19.2215 10.1643 19.7341 9.98071 19.9179 10.4197C20.6556 12.1817 22.8702 12.8762 24.4766 11.8248C24.8995 11.5543 25.1764 11.9299 25.1826 12.3264C25.1843 12.4344 25.2053 15.1074 25.2076 15.4753C25.5904 15.2041 26.0873 14.5059 26.0838 12.71C26.0838 12.7037 26.0839 12.6975 26.0842 12.6912C26.0849 12.6729 26.147 10.7948 25.2174 9.80295C24.8529 9.41399 24.3899 9.21753 23.802 9.20227C23.5683 9.19615 23.3821 9.00503 23.3821 8.77132C23.3821 8.0477 22.7993 7.459 22.0829 7.459C21.6665 7.45926 21.2477 7.36426 20.8265 7.36426Z" fill="white"/>
<path d="M17.3242 13.3806V16.0875C17.3242 18.0263 18.9015 19.6036 20.8403 19.6036C22.7563 19.6036 24.3192 18.0634 24.3557 16.1561C24.3513 16.1319 24.349 16.1069 24.3488 16.0814C24.3432 15.0705 24.3343 13.6958 24.3266 12.8792C22.5933 13.6166 20.5257 12.9913 19.484 11.4277C18.9069 12.22 18.1711 12.8859 17.3242 13.3806Z" fill="white"/>
<path d="M19.0586 20.0869V21.0034C19.0586 21.9951 19.8528 22.8019 20.8291 22.8019C21.8054 22.8019 22.5997 21.9951 22.5997 21.0034V20.0964C21.4838 20.5871 20.1719 20.5837 19.0586 20.0869Z" fill="white"/>
<path d="M14.1174 30.3281H3.94503C2.61409 30.3281 1.53125 31.411 1.53125 32.7419C1.53125 34.0728 2.61409 35.1557 3.94503 35.1557H10.9105C11.0219 35.1557 11.129 35.1988 11.2092 35.276L13.1691 37.1605V35.5867C13.1691 35.3486 13.3621 35.1557 13.6002 35.1557H14.1174C15.4483 35.1557 16.5312 34.0728 16.5312 32.7419C16.5312 31.411 15.4483 30.3281 14.1174 30.3281ZM4.45632 33.1729H3.68641C3.4484 33.1729 3.25538 32.98 3.25538 32.7419C3.25538 32.5038 3.4484 32.3109 3.68641 32.3109H4.45632C4.69434 32.3109 4.88736 32.5038 4.88736 32.7419C4.88736 32.98 4.69434 33.1729 4.45632 33.1729ZM14.376 33.1729H6.35287C6.11485 33.1729 5.92183 32.98 5.92183 32.7419C5.92183 32.5038 6.11485 32.3109 6.35287 32.3109H14.376C14.614 32.3109 14.8071 32.5038 14.8071 32.7419C14.8071 32.98 14.614 33.1729 14.376 33.1729Z" fill="white"/>
<path d="M10.6666 16.1045H3.94247C2.37136 16.1045 1.09766 17.3782 1.09766 18.9493C1.09766 20.5204 2.37136 21.7941 3.94247 21.7941H7.4597L10.1493 24.3803V21.7941H10.6666C12.2377 21.7941 13.5114 20.5204 13.5114 18.9493C13.5114 17.3782 12.2377 16.1045 10.6666 16.1045ZM8.46538 19.3803H3.68385C3.44584 19.3803 3.25282 19.1873 3.25282 18.9493C3.25282 18.7113 3.44584 18.5183 3.68385 18.5183H8.46538C8.7034 18.5183 8.89641 18.7113 8.89641 18.9493C8.89641 19.1873 8.7034 19.3803 8.46538 19.3803ZM10.9252 19.3803H10.2757C10.0377 19.3803 9.84469 19.1873 9.84469 18.9493C9.84469 18.7113 10.0377 18.5183 10.2757 18.5183H10.9252C11.1632 18.5183 11.3562 18.7113 11.3562 18.9493C11.3562 19.1873 11.1632 19.3803 10.9252 19.3803Z" fill="white"/>
<path d="M37.7373 23.4316H26.7028C25.3719 23.4316 24.2891 24.5145 24.2891 25.8454C24.2891 27.1764 25.3719 28.2592 26.7028 28.2592H27.2201C27.4581 28.2592 27.6511 28.4521 27.6511 28.6902V30.264L29.6109 28.3795C29.6912 28.3023 29.7983 28.2592 29.9096 28.2592H37.7373C39.0682 28.2592 40.1511 27.1764 40.1511 25.8454C40.1511 24.5145 39.0682 23.4316 37.7373 23.4316ZM34.9222 26.2765H26.4442C26.2062 26.2765 26.0132 26.0835 26.0132 25.8454C26.0132 25.6073 26.2062 25.4144 26.4442 25.4144H34.9222C35.1602 25.4144 35.3532 25.6073 35.3532 25.8454C35.3532 26.0835 35.1602 26.2765 34.9222 26.2765ZM37.9959 26.2765H36.9912C36.7531 26.2765 36.5601 26.0835 36.5601 25.8454C36.5601 25.6073 36.7531 25.4144 36.9912 25.4144H37.9959C38.2339 25.4144 38.4269 25.6073 38.4269 25.8454C38.4269 26.0835 38.2339 26.2765 37.9959 26.2765Z" fill="white"/>
<path d="M33.6166 2.14259C33.3786 2.14259 33.1855 1.94957 33.1855 1.71155V1.10388C33.1855 0.865868 33.3786 0.672852 33.6166 0.672852C33.8546 0.672852 34.0476 0.865868 34.0476 1.10388V1.71155C34.0476 1.94957 33.8546 2.14259 33.6166 2.14259Z" fill="white"/>
<path d="M29.1237 4.15309C29.0091 4.15309 28.8949 4.10775 28.81 4.01783L28.4046 3.58818C28.2413 3.41508 28.2492 3.14223 28.4224 2.97887C28.5955 2.81542 28.8683 2.82344 29.0317 2.99663L29.4371 3.42628C29.6864 3.69051 29.5054 4.15309 29.1237 4.15309Z" fill="white"/>
<path d="M27.7661 7.33277H27.1928C26.9547 7.33277 26.7617 7.13975 26.7617 6.90174C26.7617 6.66372 26.9547 6.4707 27.1928 6.4707H27.7661C28.0041 6.4707 28.1971 6.66372 28.1971 6.90174C28.1971 7.13975 28.0042 7.33277 27.7661 7.33277Z" fill="white"/>
<path d="M40.0629 7.30835H39.4896C39.2516 7.30835 39.0586 7.11534 39.0586 6.87732C39.0586 6.63931 39.2516 6.44629 39.4896 6.44629H40.0629C40.3009 6.44629 40.4939 6.63931 40.4939 6.87732C40.4939 7.11534 40.3009 7.30835 40.0629 7.30835Z" fill="white"/>
<path d="M38.1176 4.22236C37.7359 4.22236 37.5548 3.75978 37.8041 3.49556L38.2096 3.0659C38.3729 2.8928 38.6458 2.88478 38.8189 3.04814C38.9921 3.21151 39 3.48435 38.8366 3.65745L38.4312 4.0871C38.3464 4.17702 38.2321 4.22236 38.1176 4.22236Z" fill="white"/>
<path d="M31.8493 13.3096C31.4047 13.3096 31.043 13.6713 31.043 14.1159C31.043 14.5606 31.4047 14.9223 31.8493 14.9223H35.409C35.8536 14.9223 36.2154 14.5606 36.2154 14.1159C36.2154 13.6713 35.8536 13.3096 35.409 13.3096H31.8493Z" fill="white"/>
<path d="M32.3164 15.7842V16.6211C32.3164 16.8587 32.5098 17.0521 32.7474 17.0521H34.5086C34.7462 17.0521 34.9396 16.8587 34.9396 16.6211V15.7842H32.3164Z" fill="white"/>
<path d="M33.6125 3.66602C31.3309 3.66602 29.4746 5.54006 29.4746 7.8435C29.4746 9.03668 29.9821 10.1757 30.8671 10.9685C31.3293 11.3825 31.6968 11.8895 31.9421 12.4486H35.283C35.5286 11.8893 35.896 11.3824 36.358 10.9685C37.2429 10.1758 37.7504 9.03677 37.7504 7.8435C37.7504 5.53997 35.8942 3.66602 33.6125 3.66602ZM33.6125 5.90738C31.8701 5.90738 31.089 8.15806 32.3625 9.29901C32.7679 9.6622 32.194 10.3054 31.7873 9.94107C29.9406 8.28668 31.1022 5.04532 33.6124 5.04532C33.8505 5.04532 34.0435 5.23834 34.0435 5.47635C34.0435 5.71437 33.8505 5.90738 33.6125 5.90738Z" fill="white"/>
<path d="M5.35261 6.09316L1.5278 2.60059L1.52539 9.5878L5.35261 6.09316Z" fill="white"/>
<path d="M2.20703 2.05273L6.69787 6.15341L11.1887 2.05273H2.20703Z" fill="white"/>
<path d="M8.04297 6.09336L11.8678 9.58584L11.8702 2.59863L8.04297 6.09336Z" fill="white"/>
<path d="M7.40365 6.67676L6.98848 7.05589C6.79468 7.20615 6.60098 7.20615 6.40719 7.05589L5.99201 6.67676L2.20703 10.1329H11.1886L7.40365 6.67676Z" fill="white"/>
</svg>
