<svg width="46" height="46" viewBox="0 0 46 46" fill="none" xmlns="http://www.w3.org/2000/svg">
<circle cx="23" cy="23" r="22.5" stroke="white"/>
<path d="M28.0145 17.5664C27.7836 17.5664 27.5957 17.7543 27.5957 17.9852C27.5957 18.2161 27.7836 18.404 28.0145 18.404C28.2454 18.404 28.4333 18.2161 28.4333 17.9852C28.4333 17.7543 28.2454 17.5664 28.0145 17.5664Z" fill="white"/>
<path d="M22.9978 19.2852C20.9507 19.2852 19.2852 20.9507 19.2852 22.9978C19.2852 25.045 20.9507 26.7105 22.9978 26.7105C25.045 26.7105 26.7105 25.045 26.7105 22.9978C26.7105 20.9507 25.045 19.2852 22.9978 19.2852Z" fill="white"/>
<path d="M26.8962 14.375H19.1038C16.4963 14.375 14.375 16.4963 14.375 19.1039V26.8962C14.375 29.5037 16.4963 31.625 19.1038 31.625H26.8962C29.5037 31.625 31.625 29.5037 31.625 26.8962V19.1039C31.625 16.4963 29.5037 14.375 26.8962 14.375ZM23 27.7314C20.3911 27.7314 18.2687 25.6089 18.2687 23C18.2687 20.3911 20.3911 18.2687 23 18.2687C25.6089 18.2687 27.7314 20.3911 27.7314 23C27.7314 25.6089 25.6089 27.7314 23 27.7314ZM28.0143 19.4232C27.2217 19.4232 26.5768 18.7783 26.5768 17.9857C26.5768 17.1931 27.2217 16.5482 28.0143 16.5482C28.8069 16.5482 29.4518 17.1931 29.4518 17.9857C29.4518 18.7783 28.8069 19.4232 28.0143 19.4232Z" fill="white"/>
</svg>
