<svg width="39" height="40" viewBox="0 0 39 40" fill="none" xmlns="http://www.w3.org/2000/svg">
<path d="M20 13.9997V5.33301H0V13.9997C0 14.3677 0.298667 14.6663 0.666667 14.6663H19.3333C19.7013 14.6663 20 14.3677 20 13.9997ZM1.33333 6.66634H4V7.99967H1.33333V6.66634ZM5.33333 13.333H1.33333V11.9997H5.33333V13.333ZM8 13.333H6.66667V11.9997H8V13.333ZM12 13.333H9.33333V11.9997H12V13.333ZM12 10.6663H1.33333V9.33301H12V10.6663ZM12 7.99967H5.33333V6.66634H12V7.99967ZM18 12.6663H14V7.33301H18V12.6663Z" fill="white"/>
<path d="M22 36H15.3333V38.6667H10V40H27.3333V38.6667H22V36Z" fill="white"/>
<path d="M6.66602 16.0003V29.3337H30.666V25.3057C29.9207 25.1837 29.2947 24.659 29.0534 23.923C28.9867 23.721 28.8427 23.5643 28.656 23.4917C28.5674 23.457 28.4807 23.4223 28.3954 23.385C28.2134 23.3057 28 23.3157 27.812 23.4097C27.02 23.8103 26.066 23.6577 25.4387 23.031L24.9687 22.5603C24.3413 21.9323 24.1887 20.9783 24.5893 20.1863C24.6847 19.9983 24.6933 19.7857 24.6147 19.6043C24.5767 19.5183 24.542 19.4317 24.5074 19.3437C24.4347 19.157 24.2774 19.0123 24.076 18.9457C23.2334 18.6697 22.666 17.887 22.666 16.999V16.335C22.666 15.6577 22.9967 15.0443 23.5273 14.667H21.21C20.934 15.441 20.2007 16.0003 19.3327 16.0003H6.66602ZM8.47068 28.4717L7.52802 27.529L9.72335 25.3337L7.52802 23.1383L8.47068 22.1957L11.6087 25.3337L8.47068 28.4717ZM17.3327 28.0003H11.9993V26.667H17.3327V28.0003ZM21.3327 21.3337H7.99935V20.0003H21.3327V21.3337ZM21.3327 17.3337V18.667H7.99935V17.3337H21.3327Z" fill="white"/>
<path d="M20 0.666667C20 0.298667 19.7013 0 19.3333 0H0.666667C0.298667 0 0 0.298667 0 0.666667V4H20V0.666667ZM2.66667 2.66667H1.33333V1.33333H2.66667V2.66667ZM5.33333 2.66667H4V1.33333H5.33333V2.66667ZM8 2.66667H6.66667V1.33333H8V2.66667Z" fill="white"/>
<path d="M32 25.3053V29.3333C32 30.0687 31.402 30.6667 30.6667 30.6667H6.66667C5.93133 30.6667 5.33333 30.0687 5.33333 29.3333V16H4V32.6667C4 33.7693 4.89733 34.6667 6 34.6667H14H23.3333H31.3333C32.436 34.6667 33.3333 33.7693 33.3333 32.6667V24.472C33.0193 24.9133 32.542 25.2167 32 25.3053ZM18.6667 34C17.93 34 17.3333 33.4033 17.3333 32.6667C17.3333 31.93 17.93 31.3333 18.6667 31.3333C19.4033 31.3333 20 31.93 20 32.6667C20 33.4033 19.4033 34 18.6667 34Z" fill="white"/>
<path d="M24.5913 13.1467C24.4073 12.7827 24.3453 12.3853 24.3873 12H21.334V13.3333H24.6407C24.628 13.2707 24.6213 13.2067 24.5913 13.1467Z" fill="white"/>
<path d="M38.1747 15.6537C37.5927 15.4623 37.1333 15.0317 36.916 14.473C36.888 14.4017 36.858 14.3303 36.8273 14.2597C36.5907 13.7143 36.612 13.089 36.886 12.5463C37.026 12.269 36.9727 11.9357 36.7533 11.7163L36.284 11.2463C36.0653 11.0283 35.732 10.9737 35.4547 11.1143C34.9113 11.3883 34.2867 11.4097 33.74 11.1723C33.67 11.1423 33.5987 11.1123 33.5267 11.0843C32.968 10.867 32.538 10.4083 32.346 9.82701C32.2493 9.53101 31.976 9.33301 31.6653 9.33301H31.0013C30.6907 9.33301 30.4173 9.53101 30.3207 9.82501C30.1293 10.407 29.6987 10.8663 29.14 11.0837C29.0687 11.1117 28.9973 11.1417 28.9267 11.1723C28.382 11.4097 27.756 11.3877 27.2133 11.1137C26.9367 10.9743 26.6027 11.027 26.3833 11.2457L25.9133 11.7157C25.6947 11.935 25.6413 12.2683 25.7813 12.545C26.0553 13.0883 26.0767 13.7137 25.8393 14.2597C25.8093 14.3297 25.7793 14.401 25.7513 14.473C25.534 15.0317 25.0753 15.4617 24.494 15.6537C24.198 15.7503 24 16.0237 24 16.3343V16.9983C24 17.309 24.198 17.5823 24.492 17.679C25.074 17.8703 25.5333 18.301 25.7507 18.8597C25.7787 18.931 25.8087 19.0023 25.8393 19.073C26.076 19.6183 26.0547 20.2437 25.7807 20.7863C25.6407 21.0637 25.694 21.397 25.9133 21.6163L26.3827 22.0863C26.6027 22.305 26.936 22.3583 27.212 22.2183C27.5047 22.0703 27.8213 21.9963 28.1367 21.9963C28.406 21.9963 28.6753 22.051 28.9273 22.1603C28.9973 22.1903 29.0687 22.2203 29.1407 22.2483C29.6993 22.4657 30.1293 22.9243 30.3213 23.5057C30.418 23.801 30.6913 23.999 31.002 23.999H31.666C31.9767 23.999 32.25 23.801 32.3467 23.507C32.538 22.925 32.9687 22.4657 33.5273 22.2483C33.5987 22.2203 33.67 22.1903 33.7407 22.1597C34.286 21.923 34.912 21.9443 35.454 22.2183C35.732 22.3583 36.0653 22.3057 36.284 22.0857L36.754 21.6163C36.9727 21.397 37.026 21.0637 36.886 20.787C36.612 20.2437 36.5907 19.6183 36.828 19.0723C36.858 19.0023 36.888 18.931 36.916 18.859C37.1333 18.3003 37.592 17.8703 38.1733 17.6783C38.4687 17.5817 38.6667 17.3083 38.6667 16.9977V16.3337C38.6667 16.0237 38.4687 15.7503 38.1747 15.6537ZM31.3333 20.6663C29.124 20.6663 27.3333 18.8757 27.3333 16.6663C27.3333 14.457 29.124 12.6663 31.3333 12.6663C33.5427 12.6663 35.3333 14.457 35.3333 16.6663C35.3333 18.8757 33.5427 20.6663 31.3333 20.6663Z" fill="white"/>
<path d="M31.3333 17.9997C32.0697 17.9997 32.6667 17.4027 32.6667 16.6663C32.6667 15.93 32.0697 15.333 31.3333 15.333C30.597 15.333 30 15.93 30 16.6663C30 17.4027 30.597 17.9997 31.3333 17.9997Z" fill="white"/>
</svg>
