<svg width="17" height="12" viewBox="0 0 17 12" fill="none" xmlns="http://www.w3.org/2000/svg">
<path d="M9.35012 7.80433C8.9515 8.07007 8.48849 8.21055 8.01111 8.21055C7.53376 8.21055 7.07074 8.07007 6.67212 7.80433L0.106679 3.42723C0.0702536 3.40295 0.0347669 3.37763 0 3.35159V10.5239C0 11.3463 0.667331 11.9989 1.47495 11.9989H14.5472C15.3696 11.9989 16.0222 11.3316 16.0222 10.5239V3.35156C15.9874 3.37766 15.9518 3.40304 15.9153 3.42736L9.35012 7.80433Z" fill="#CFC8DA"/>
<path d="M0.627432 2.64717L7.19288 7.0243C7.44141 7.19 7.72624 7.27283 8.01107 7.27283C8.29594 7.27283 8.5808 7.18997 8.82933 7.0243L15.3948 2.64717C15.7877 2.3854 16.0222 1.94729 16.0222 1.47445C16.0222 0.661417 15.3608 0 14.5478 0H1.47445C0.661448 3.12934e-05 0 0.661448 0 1.47523C0 1.94729 0.234575 2.3854 0.627432 2.64717Z" fill="#CFC8DA"/>
</svg>
