<svg width="41" height="41" viewBox="0 0 41 41" fill="none" xmlns="http://www.w3.org/2000/svg">
<path d="M33.2595 0.988281H1.99191C1.2597 0.988281 0.664062 1.58434 0.664062 2.31698V26.5515C0.664062 27.2841 1.2597 27.8802 1.99191 27.8802H8.64841V25.9314H3.05412C2.80968 25.9314 2.61147 25.7331 2.61147 25.4885V3.37988C2.61147 3.13526 2.80968 2.93698 3.05412 2.93698H32.1973C32.4417 2.93698 32.6399 3.13526 32.6399 3.37988V10.5547H34.5873V2.31698C34.5873 1.58434 33.9916 0.988281 33.2595 0.988281Z" fill="white"/>
<path d="M3.49609 25.0451H8.64774V22.6177H6.55982C6.31538 22.6177 6.11717 22.4194 6.11717 22.1748V15.6948C6.11717 15.4502 6.31538 15.2519 6.55982 15.2519H12.1504C12.3949 15.2519 12.5931 15.4502 12.5931 15.6948V20.2979H14.3872V15.6948C14.3872 15.4502 14.5854 15.2519 14.8298 15.2519H20.0289V12.8474H6.55982C6.31538 12.8474 6.11717 12.6491 6.11717 12.4045V6.69266C6.11717 6.44805 6.31538 6.24976 6.55982 6.24976H28.6902C28.9347 6.24976 29.1329 6.44805 29.1329 6.69266V10.5543H31.754V3.82227H3.49609V25.0451Z" fill="white"/>
<path d="M11.7113 16.1377H7.00586V21.7319H8.70233C8.89567 20.9113 9.63181 20.298 10.5101 20.298H11.7112V16.1377H11.7113Z" fill="white"/>
<path d="M15.2715 16.1377H20.0279V20.298H15.2715V16.1377Z" fill="white"/>
<path d="M28.251 7.13574H7.00586V11.9618H8.59926V9.35025C8.59926 9.10563 8.79746 8.90734 9.0419 8.90734C9.28634 8.90734 9.48455 9.10563 9.48455 9.35025V11.9618H20.1324C20.3982 11.1459 21.1653 10.5544 22.0682 10.5544H28.2511V7.13574H28.251Z" fill="white"/>
<path d="M26.1934 30.2871H29.7343V34.7375H26.1934V30.2871Z" fill="white"/>
<path d="M27.6097 25.1529C27.6097 24.9083 27.8079 24.71 28.0523 24.71C28.2968 24.71 28.495 24.9083 28.495 25.1529V26.6482H35.0456V23.8242H26.1934V26.6482H27.6097V25.1529Z" fill="white"/>
<path d="M27.6097 18.8828C27.6097 18.6382 27.8079 18.4399 28.0523 18.4399C28.2968 18.4399 28.495 18.6382 28.495 18.8828V20.2009H35.0456V17.377H26.1934V20.2009H27.6097V18.8828Z" fill="white"/>
<path d="M37.7897 37.5724V14.542H23.4492V21.0684C23.6725 21.3753 23.8061 21.7518 23.8061 22.1598V37.5724H37.7897ZM35.4881 35.4287H32.2617C32.0172 35.4287 31.819 35.2305 31.819 34.9858C31.819 34.7412 32.0172 34.5429 32.2617 34.5429H35.4881C35.7326 34.5429 35.9308 34.7412 35.9308 34.9858C35.9307 35.2305 35.7326 35.4287 35.4881 35.4287ZM35.4881 32.9555H32.2617C32.0172 32.9555 31.819 32.7572 31.819 32.5126C31.819 32.268 32.0172 32.0697 32.2617 32.0697H35.4881C35.7326 32.0697 35.9308 32.268 35.9308 32.5126C35.9307 32.7573 35.7326 32.9555 35.4881 32.9555ZM35.4881 30.4824H32.2617C32.0172 30.4824 31.819 30.2841 31.819 30.0395C31.819 29.7949 32.0172 29.5966 32.2617 29.5966H35.4881C35.7326 29.5966 35.9308 29.7949 35.9308 30.0395C35.9308 30.2841 35.7326 30.4824 35.4881 30.4824ZM25.3082 16.9336C25.3082 16.689 25.5064 16.4907 25.7508 16.4907H35.4882C35.7327 16.4907 35.9309 16.689 35.9309 16.9336V20.6434C35.9309 20.888 35.7327 21.0863 35.4882 21.0863H25.7507C25.5063 21.0863 25.3081 20.888 25.3081 20.6434V16.9336H25.3082ZM25.3082 23.3815C25.3082 23.1368 25.5064 22.9386 25.7508 22.9386H35.4882C35.7327 22.9386 35.9309 23.1368 35.9309 23.3815V27.0912C35.9309 27.3359 35.7327 27.5341 35.4882 27.5341H25.7507C25.5063 27.5341 25.3081 27.3359 25.3081 27.0912V23.3815H25.3082ZM25.3082 29.8445C25.3082 29.5999 25.5064 29.4016 25.7508 29.4016H30.1769C30.4214 29.4016 30.6196 29.5999 30.6196 29.8445V35.1807C30.6196 35.4253 30.4214 35.6236 30.1769 35.6236H25.7508C25.5064 35.6236 25.3082 35.4253 25.3082 35.1807V29.8445Z" fill="white"/>
<path d="M39.1722 11.4414H22.0668C21.4322 11.4414 20.916 11.958 20.916 12.5929V20.2992H21.9471C22.1636 20.2992 22.3706 20.3384 22.564 20.4068V14.0987C22.564 13.8541 22.7622 13.6558 23.0067 13.6558H38.2324C38.4768 13.6558 38.675 13.8541 38.675 14.0987V38.0149C38.675 38.2595 38.4768 38.4578 38.2324 38.4578H23.8061V39.6979C23.8061 40.0552 23.7062 40.389 23.532 40.6723L39.1722 40.6722C39.8067 40.6722 40.323 40.1557 40.323 39.5207V12.5928C40.323 11.958 39.8067 11.4414 39.1722 11.4414ZM30.6195 13.0463C30.375 13.0463 30.1768 12.848 30.1768 12.6034C30.1768 12.3587 30.375 12.1605 30.6195 12.1605C30.8639 12.1605 31.0621 12.3587 31.0621 12.6034C31.062 12.848 30.8639 13.0463 30.6195 13.0463Z" fill="white"/>
<path d="M11.7109 38.1928H20.7401V23.666H11.7109V38.1928ZM13.3043 26.7662C13.3043 26.5216 13.5025 26.3233 13.747 26.3233C13.9914 26.3233 14.1896 26.5216 14.1896 26.7662V32.5941C14.1896 32.8387 13.9914 33.037 13.747 33.037C13.5025 33.037 13.3043 32.8387 13.3043 32.5941V26.7662ZM13.3043 34.5428C13.3043 34.2982 13.5025 34.0999 13.747 34.0999C13.9914 34.0999 14.1896 34.2982 14.1896 34.5428V35.0926C14.1896 35.3372 13.9914 35.5355 13.747 35.5355C13.5025 35.5355 13.3043 35.3372 13.3043 35.0926V34.5428Z" fill="white"/>
<path d="M21.9454 21.1855H10.507C9.97004 21.1855 9.5332 21.6226 9.5332 22.1599V39.6984C9.5332 40.2357 9.97004 40.6727 10.507 40.6727H21.9454C22.4824 40.6727 22.9192 40.2357 22.9192 39.6984V22.1599C22.9192 21.6226 22.4824 21.1855 21.9454 21.1855ZM21.626 38.6355C21.626 38.8801 21.4278 39.0784 21.1833 39.0784H11.2689C11.0245 39.0784 10.8263 38.8801 10.8263 38.6355V23.2229C10.8263 22.9783 11.0245 22.78 11.2689 22.78H21.1833C21.4278 22.78 21.626 22.9783 21.626 23.2229V38.6355Z" fill="white"/>
<path d="M6.71999 39.1446C6.47555 39.1446 6.27734 38.9463 6.27734 38.7017V33.8023C6.27734 33.5577 6.47555 33.3594 6.71999 33.3594C6.96443 33.3594 7.16263 33.5577 7.16263 33.8023V38.7018C7.16255 38.9464 6.96434 39.1446 6.71999 39.1446Z" fill="white"/>
<path d="M6.71999 32.2073C6.47555 32.2073 6.27734 32.009 6.27734 31.7644V31.1529C6.27734 30.9082 6.47555 30.71 6.71999 30.71C6.96443 30.71 7.16263 30.9082 7.16263 31.1529V31.7644C7.16255 32.009 6.96434 32.2073 6.71999 32.2073Z" fill="white"/>
<path d="M37.4329 8.2208C37.1884 8.2208 36.9902 8.02251 36.9902 7.7779V3.76419C36.9902 3.51958 37.1884 3.32129 37.4329 3.32129C37.6773 3.32129 37.8755 3.51958 37.8755 3.76419V7.7779C37.8755 8.02251 37.6773 8.2208 37.4329 8.2208Z" fill="white"/>
<path d="M37.4329 2.17018C37.1884 2.17018 36.9902 1.9719 36.9902 1.72728V1.11575C36.9902 0.87114 37.1884 0.672852 37.4329 0.672852C37.6773 0.672852 37.8755 0.87114 37.8755 1.11575V1.72728C37.8755 1.97198 37.6773 2.17018 37.4329 2.17018Z" fill="white"/>
</svg>
