<svg width="40" height="40" viewBox="0 0 40 40" fill="none" xmlns="http://www.w3.org/2000/svg">
<path d="M31.7248 29.6547C32.1057 29.6547 32.4145 29.3459 32.4145 28.965C32.4145 28.5842 32.1057 28.2754 31.7248 28.2754C31.3439 28.2754 31.0352 28.5842 31.0352 28.965C31.0352 29.3459 31.3439 29.6547 31.7248 29.6547Z" fill="white"/>
<path d="M31.4382 7.58636L28.9651 5.11328L25.2852 8.79324C26.3686 9.31048 27.3658 9.97875 28.2513 10.7732L31.4382 7.58636Z" fill="white"/>
<path d="M21.3218 11.0398C21.3411 11.0398 21.359 11.0343 21.3783 11.0343C23.2797 11.0343 24.8266 12.5812 24.8266 14.4826C24.8266 16.3839 23.2797 17.9308 21.3783 17.9308H17.9301V19.9998C17.9301 20.3804 18.2397 20.6894 18.6197 20.6894H24.1369C25.2776 20.6894 26.2059 21.6177 26.2059 22.7584C26.2059 23.899 25.2776 24.8273 24.1369 24.8273H17.2404C16.8604 24.8273 16.5508 25.1363 16.5508 25.5169C16.5508 25.8976 16.8604 26.2066 17.2404 26.2066H18.6197C19.7604 26.2066 20.6887 27.1349 20.6887 28.2755V31.7238H23.4473C23.5873 31.7238 23.7238 31.7383 23.8555 31.7652C24.6431 29.8293 25.9962 28.5011 27.3134 27.2162C29.2265 25.3507 31.0334 23.588 31.0334 19.9998C31.0334 14.3681 26.7134 9.64952 21.2156 9.03711C21.3176 9.45711 21.3783 9.89365 21.3783 10.3447C21.3783 10.5792 21.3514 10.8095 21.3218 11.0398Z" fill="white"/>
<path d="M28.3968 28.0872C28.3216 28.3734 28.2754 28.6672 28.2754 28.9658C28.2754 30.8672 29.8223 32.4141 31.7236 32.4141C33.625 32.4141 35.1719 30.8672 35.1719 28.9658C35.1719 27.0645 33.625 25.5176 31.7236 25.5176C31.3188 25.5176 30.9285 25.5983 30.5533 25.7348C29.9037 26.6024 29.1492 27.3527 28.3968 28.0872ZM33.7926 28.9658C33.7926 30.1065 32.8643 31.0348 31.7236 31.0348C30.583 31.0348 29.6547 30.1065 29.6547 28.9658C29.6547 27.8251 30.583 26.8969 31.7236 26.8969C32.8643 26.8969 33.7926 27.8251 33.7926 28.9658Z" fill="white"/>
<path d="M12.6848 27.2161C14.002 28.5009 15.3551 29.8292 16.1427 31.765C16.2744 31.7381 16.411 31.7236 16.551 31.7236H19.3096V28.2754C19.3096 27.8947 18.9999 27.5857 18.6199 27.5857H17.2406C16.0999 27.5857 15.1717 26.6575 15.1717 25.5168C15.1717 24.3761 16.0999 23.4478 17.2406 23.4478H24.1371C24.5171 23.4478 24.8268 23.1389 24.8268 22.7582C24.8268 22.3775 24.5171 22.0686 24.1371 22.0686H18.6199C17.4792 22.0686 16.551 21.1403 16.551 19.9996V17.9307H9.17726C9.04829 18.6113 8.96484 19.3024 8.96484 19.9996C8.96484 23.5878 10.7717 25.3506 12.6848 27.2161Z" fill="white"/>
<path d="M31.2025 14.718L34.8859 11.0346L32.4129 8.56152L29.2246 11.7498C30.0184 12.6367 30.686 13.6339 31.2025 14.718Z" fill="white"/>
<path d="M38.7738 7.14751C39.5649 6.35718 40 5.30477 40 4.18685C40 1.8786 38.1214 0 35.8132 0C34.6946 0 33.6435 0.435858 32.8525 1.22619L32.0098 2.06894L37.9311 7.99026L38.7738 7.14751Z" fill="white"/>
<path d="M29.9375 4.14062L31.0311 3.04698L36.9514 8.96719L35.8577 10.0608L29.9375 4.14062Z" fill="white"/>
<path d="M20.0006 40.0004C21.0192 40.0004 21.9275 39.4583 22.431 38.6211H17.5703C18.0738 39.4583 18.982 40.0004 20.0006 40.0004Z" fill="white"/>
<path d="M23.4475 35.8613H16.551C16.171 35.8613 15.8613 36.1703 15.8613 36.551C15.8613 36.9317 16.171 37.2406 16.551 37.2406H23.4475C23.8275 37.2406 24.1371 36.9317 24.1371 36.551C24.1371 36.1703 23.8275 35.8613 23.4475 35.8613Z" fill="white"/>
<path d="M7.18164 33.7935L9.65472 36.2666L14.4678 31.4535C13.8871 30.4163 13.1002 29.5653 12.2512 28.7246L7.18164 33.7935Z" fill="white"/>
<path d="M37.4677 26.6066C37.0339 25.566 37.2615 24.406 38.038 23.6287L38.067 23.5998L37.0904 22.6232L37.0615 22.6522C36.2842 23.4301 35.1222 23.6577 34.1049 23.2315C33.0698 22.8039 32.4146 21.8246 32.4146 20.7274V20.6895H32.3925C32.3119 22.0556 31.9912 23.1784 31.5243 24.1473C31.5919 24.1446 31.6574 24.1377 31.725 24.1377C34.387 24.1377 36.5525 26.3039 36.5525 28.9652C36.5525 31.6266 34.387 33.7928 31.725 33.7928C29.2664 33.7928 27.2354 31.9438 26.9388 29.5645C26.1561 30.4197 25.4836 31.3452 25.0547 32.5038C25.3402 32.859 25.5181 33.3031 25.5181 33.7928C25.5181 33.9955 25.4795 34.1872 25.425 34.3728L26.3595 35.3072L26.3885 35.2783C27.165 34.501 28.325 34.2728 29.345 34.6983C30.3802 35.1272 31.0353 36.1058 31.0353 37.2031V37.241H32.4146V37.2031C32.4146 36.1058 33.0698 35.1265 34.0836 34.7079C35.1229 34.2721 36.2835 34.5003 37.0622 35.2783L37.0911 35.3072L38.0677 34.3307L38.0387 34.3017C37.2621 33.5245 37.0346 32.3638 37.4594 31.3459C37.8863 30.31 38.8656 29.6549 39.9628 29.6549H40.0007V28.2756H39.9628C38.8656 28.2756 37.8863 27.6204 37.4677 26.6066Z" fill="white"/>
<path d="M23.4475 33.1035H16.551C16.171 33.1035 15.8613 33.4125 15.8613 33.7932C15.8613 34.1738 16.171 34.4828 16.551 34.4828H23.4475C23.8275 34.4828 24.1371 34.1738 24.1371 33.7932C24.1371 33.4125 23.8275 33.1035 23.4475 33.1035Z" fill="white"/>
<path d="M1.26367 36.1512L3.84847 38.736L8.4167 36.9788L3.0209 31.583L1.26367 36.1512Z" fill="white"/>
<path d="M2.75859 16.5518H21.3791C22.5198 16.5518 23.448 15.6235 23.448 14.4828C23.448 13.3421 22.5198 12.4139 21.3791 12.4139C20.2384 12.4139 19.3102 13.3421 19.3102 14.4828H17.9309C17.9309 13.1339 18.7171 11.9752 19.8481 11.409C19.9405 11.0628 19.9998 10.7077 19.9998 10.3449C19.9998 8.06287 18.144 6.20703 15.8619 6.20703C13.7764 6.20703 12.0516 7.75874 11.7688 9.76699C12.9323 10.0911 13.793 11.1484 13.793 12.4139H12.4137C12.4137 11.6532 11.7951 11.0346 11.0344 11.0346C10.2737 11.0346 9.65508 11.6532 9.65508 12.4139H8.27578C8.27578 11.1194 9.17508 10.0387 10.3792 9.74217C10.573 7.96908 11.6116 6.4491 13.0819 5.58704C12.1137 3.85533 10.293 2.75879 8.27578 2.75879C5.23374 2.75879 2.75859 5.23394 2.75859 8.27597C2.75859 8.74769 2.8179 9.21321 2.93514 9.66424C5.13443 9.75734 6.89648 11.5711 6.89648 13.7932H5.51719C5.51719 12.2718 4.27996 11.0346 2.75859 11.0346C1.23723 11.0346 0 12.2718 0 13.7932C0 15.3145 1.23723 16.5518 2.75859 16.5518Z" fill="white"/>
<path d="M6.20745 32.8181L11.2674 27.7582C10.4467 26.9485 9.64328 26.1002 8.99639 25.083L3.73438 30.345L6.20745 32.8181Z" fill="white"/>
<path d="M0.0310342 39.3568C0.0110344 39.4113 0 39.4685 0 39.5264C0 39.8464 0.345514 40.0844 0.644131 39.9685L2.43998 39.2775L0.722062 37.5596L0.0310342 39.3568Z" fill="white"/>
</svg>
