<svg width="40" height="40" viewBox="0 0 40 40" fill="none" xmlns="http://www.w3.org/2000/svg">
<path d="M23.4438 8.2755H23.5348C23.6962 8.2755 23.8514 8.30171 24.0017 8.33964L24.1542 7.77205C24.1804 7.66722 24.1948 7.54722 24.1948 7.42722C24.1948 6.81136 23.8066 6.25687 23.2279 6.04584L20.3045 4.98307C19.2569 4.60169 18.0093 4.97204 17.3396 5.86515L16.7852 6.60446H16.4403C16.0852 6.60446 15.7969 6.89274 15.7969 7.24791C15.7969 7.57412 15.8755 7.98378 15.9665 8.34723C16.1238 8.30516 16.2858 8.2755 16.4562 8.2755H16.9079C17.1652 7.77136 17.5486 7.33205 18.041 7.00929L18.3976 6.7755L18.7665 6.98998C18.7886 7.00239 20.9976 8.2755 22.7541 8.2755H23.4438Z" fill="white"/>
<path d="M15.8574 10.3449C15.8574 10.7256 16.1257 11.0346 16.456 11.0346H16.5471V9.76079C16.5471 9.72493 16.5526 9.69045 16.554 9.65527H16.456C16.1257 9.65527 15.8574 9.96424 15.8574 10.3449Z" fill="white"/>
<path d="M22.0657 11.0778V9.61016C20.634 9.43223 19.1884 8.76671 18.4939 8.41016C18.1339 8.76602 17.9277 9.24878 17.9277 9.76051V11.0771C17.9277 12.195 18.856 13.1033 19.9967 13.1033C21.1374 13.1033 22.0657 12.195 22.0657 11.0778Z" fill="white"/>
<path d="M18.9442 14.3037L18.709 15.0099L19.9966 16.4403L21.2842 15.0099L21.049 14.3037C20.7152 14.4106 20.3655 14.483 19.9966 14.483C19.6276 14.483 19.278 14.4106 18.9442 14.3037Z" fill="white"/>
<path d="M10.7138 13.8628L13.3931 15.978L13.4703 15.9008C14.3696 14.9994 15.6152 14.4828 16.8876 14.4828H17.4303L17.7193 13.6152C17.3407 13.2835 17.0283 12.8801 16.8262 12.4138H16.4572C15.3662 12.4138 14.4786 11.4856 14.4786 10.3449C14.4786 9.94004 14.5945 9.56556 14.7869 9.24625C14.6428 8.78348 14.4172 7.949 14.4172 7.249C14.4172 6.26003 15.1303 5.43451 16.0697 5.26002L16.2359 5.03933C16.9828 4.04278 18.1717 3.44829 19.4173 3.44829C19.8835 3.44829 20.3407 3.52898 20.7766 3.68829L23.6993 4.75105C24.8207 5.15933 25.5745 6.23451 25.5745 7.42831C25.5745 7.66141 25.5456 7.89383 25.4897 8.11866L25.1931 9.22418C25.3938 9.54694 25.5131 9.93108 25.5131 10.3449C25.5131 11.4856 24.6256 12.4138 23.5352 12.4138H23.1662C22.9642 12.8801 22.6517 13.2835 22.2731 13.6152L22.5621 14.4828H23.1049C24.3766 14.4828 25.6221 14.9994 26.5221 15.9001C26.549 15.927 26.5731 15.9511 26.5994 15.978L29.2787 13.8628C31.2683 12.2911 32.4097 9.93521 32.4097 7.39934C32.4097 5.8414 31.9773 4.33243 31.158 3.02277C29.9752 1.13035 27.9366 0 25.7042 0C24.0111 0 22.3531 0.686899 21.1552 1.88484L19.9959 3.04415L18.8366 1.88484C17.6386 0.686899 15.9807 0 14.2876 0C12.0552 0 10.0165 1.13035 8.83376 3.02346C8.01445 4.33243 7.58203 5.84209 7.58203 7.38693C7.58203 9.93521 8.72342 12.2911 10.7138 13.8628Z" fill="white"/>
<path d="M23.5344 9.65527H23.4434V11.0346H23.5344C23.8647 11.0346 24.133 10.7256 24.133 10.3449C24.133 9.96424 23.8647 9.65527 23.5344 9.65527Z" fill="white"/>
<path d="M27.582 37.2412H35.8579V39.9998H27.582V37.2412Z" fill="white"/>
<path d="M4.13281 37.2412H12.4087V39.9998H4.13281V37.2412Z" fill="white"/>
<path d="M37.2377 22.0692V25.5175V25.8623L35.948 26.8292C34.9197 27.6003 34.1611 28.6534 33.7542 29.8734L32.4459 29.4368C32.9425 27.9492 33.8673 26.6658 35.1204 25.7258L35.8583 25.1727V22.0692V13.1037C35.8583 12.723 35.5487 12.414 35.1687 12.414C34.7887 12.414 34.479 12.723 34.479 13.1037V22.7589H33.0997V11.7243C33.0997 11.5685 33.0411 11.4264 32.9501 11.3105C32.6259 12.0395 32.219 12.7292 31.7204 13.3581V22.7589H30.3411V14.7616C30.27 14.8216 30.2066 14.8878 30.1328 14.9457L28.9618 15.8706V22.7589H27.5824V16.9588L26.2031 18.0478V27.9499C26.2031 29.861 26.6549 31.7755 27.51 33.4844L27.5824 33.6306V35.8624H35.8583V33.5437L37.9294 31.0582C38.7942 30.0196 39.3032 28.6948 39.3618 27.3299C39.5128 23.8209 39.928 19.9023 39.9921 19.3106C38.4728 19.3126 37.2377 20.5499 37.2377 22.0692Z" fill="white"/>
<path d="M22.3725 15.8623L19.9966 18.5023L17.6207 15.8623H16.8883C15.9973 15.8623 15.1276 16.2209 14.4883 16.8416L19.9966 21.1906L25.5056 16.8416C24.8663 16.2209 23.9966 15.8623 23.1056 15.8623H22.3725Z" fill="white"/>
<path d="M12.4097 22.7585H11.0304V15.8702L9.85935 14.9453C9.78625 14.8874 9.7228 14.8205 9.65107 14.7612V22.7585H8.27176V13.3584C7.77245 12.7288 7.36555 12.0391 7.04141 11.3115C6.95106 11.4274 6.89244 11.5688 6.89244 11.7239V22.7585H5.51313V13.1033C5.51313 12.7226 5.20347 12.4136 4.82347 12.4136C4.44347 12.4136 4.13381 12.7226 4.13381 13.1033V22.0688V25.1723L4.87174 25.7261C6.12554 26.6661 7.05106 27.9502 7.54624 29.4371L6.23796 29.8737C5.83175 28.653 5.07312 27.6012 4.04415 26.8295L2.75449 25.8619V25.5171V22.0688C2.75449 20.5495 1.51932 19.3122 0 19.3102C0.0641382 19.9019 0.479312 23.8205 0.630347 27.3295C0.688968 28.695 1.19794 30.0192 2.06346 31.0585L4.13381 33.5433V35.862H12.4097V33.6302L12.4821 33.4847C13.3373 31.7751 13.789 29.8613 13.789 27.9495V18.0474L12.4097 16.9584V22.7585Z" fill="white"/>
</svg>
