<svg width="41" height="41" viewBox="0 0 41 41" fill="none" xmlns="http://www.w3.org/2000/svg">
<path d="M6.28125 38.0781V39.3532C6.28125 40.0803 6.87159 40.6719 7.59731 40.6719H31.5249L31.2944 39.7267C30.9929 39.6267 30.6985 39.5038 30.4144 39.3595L29.1109 40.1524C28.9381 40.2575 28.716 40.2308 28.573 40.0875L26.8576 38.3687C26.7781 38.289 26.7345 38.1848 26.7295 38.0781H6.28125Z" fill="white"/>
<path d="M23.4102 7.25781V17.9906C23.4102 18.6208 23.9219 19.1334 24.5507 19.1334H39.1792C39.808 19.1334 40.3197 18.6208 40.3197 17.9906V7.25781H23.4102ZM29.9589 12.2389L27.9121 13.2707L29.9589 14.3024V15.2936L26.6676 13.5889V12.9525L29.9589 11.2476V12.2389ZM31.5626 15.372H30.618L32.4873 10.4873H33.4386L31.5626 15.372ZM37.0622 13.5953L37.0383 13.6075L33.771 15.293V14.302L35.8326 13.2707L33.7711 12.2395V11.2485L37.0623 12.9462V13.5953H37.0622Z" fill="white"/>
<path d="M39.0037 4.0127H24.5507C23.9219 4.0127 23.4102 4.52534 23.4102 5.15551V6.37866H40.3197V5.33132C40.3197 4.60423 39.7294 4.0127 39.0037 4.0127ZM34.6698 5.6773C34.4054 5.6773 34.1909 5.46166 34.1909 5.19568C34.1909 4.9297 34.4053 4.71406 34.6698 4.71406C34.9342 4.71406 35.1487 4.9297 35.1487 5.19568C35.1487 5.46166 34.9343 5.6773 34.6698 5.6773ZM36.7222 5.6773C36.4577 5.6773 36.2433 5.46166 36.2433 5.19568C36.2433 4.9297 36.4576 4.71406 36.7222 4.71406C36.9866 4.71406 37.2011 4.9297 37.2011 5.19568C37.2011 5.46166 36.9866 5.6773 36.7222 5.6773ZM38.7745 5.6773C38.5101 5.6773 38.2957 5.46166 38.2957 5.19568C38.2957 4.9297 38.51 4.71406 38.7745 4.71406C39.039 4.71406 39.2534 4.9297 39.2534 5.19568C39.2534 5.46166 39.039 5.6773 38.7745 5.6773Z" fill="white"/>
<path d="M26.2887 35.4074H10.0538C9.81146 35.4074 9.61505 35.2106 9.61505 34.9678V22.3873C9.04027 22.3873 8.34498 22.4969 7.78516 22.3369V37.1999H27.1777L27.5898 36.5197C27.4465 36.2346 27.3246 35.9391 27.2257 35.637L26.2887 35.4074Z" fill="white"/>
<path d="M19.7969 25.0508C18.8136 25.0508 18.0137 25.8523 18.0137 26.8375C18.0137 27.8227 18.8136 28.6243 19.7969 28.6243C20.7802 28.6243 21.5801 27.8227 21.5801 26.8375C21.58 25.8523 20.7801 25.0508 19.7969 25.0508Z" fill="white"/>
<path d="M13.9084 18.1312C13.9084 18.1776 13.906 18.2234 13.9026 18.2689H22.5593C22.5468 18.1781 22.5398 18.0854 22.5398 17.9912V16.4766H12.9286C12.9256 16.4827 12.9227 16.4888 12.9199 16.4949C13.5138 16.8074 13.9084 17.4323 13.9084 18.1312Z" fill="white"/>
<path d="M23.7591 25.7129C23.6736 25.4101 23.5523 25.116 23.3988 24.8389C23.3223 24.7008 23.3255 24.5324 23.4072 24.3974L23.9348 23.5269L23.11 22.7006L22.2443 23.2271C22.1091 23.3093 21.9404 23.3122 21.8025 23.2349C21.5267 23.0803 21.2337 22.958 20.9315 22.8714C20.7801 22.8279 20.6635 22.7064 20.6261 22.5532L20.3849 21.5645H19.2185L18.9782 22.5494C18.9407 22.7032 18.8235 22.8249 18.6715 22.8679C18.3692 22.9536 18.0759 23.0751 17.7994 23.229C17.6616 23.3056 17.4934 23.3024 17.3587 23.2205L16.4899 22.692L15.6651 23.5184L16.1906 24.3856C16.2726 24.521 16.2756 24.6901 16.1985 24.8283C16.0441 25.1048 15.922 25.3985 15.8355 25.7011C15.7922 25.8528 15.671 25.9696 15.518 26.0071L14.5312 26.2488V27.4175L15.5142 27.6582C15.6677 27.6958 15.7891 27.8132 15.8321 27.9654C15.9176 28.2682 16.0389 28.5623 16.1924 28.8394C16.2689 28.9775 16.2657 29.1459 16.184 29.2809L15.6565 30.1514L16.4812 30.9778L17.3469 30.4512C17.482 30.3689 17.6507 30.366 17.7887 30.4433C18.0645 30.598 18.3575 30.7203 18.6597 30.8069C18.8111 30.8504 18.9277 30.9719 18.9651 31.1251L19.2063 32.1138H20.3727L20.613 31.1289C20.6505 30.9751 20.7678 30.8534 20.9197 30.8104C21.222 30.7247 21.5153 30.6032 21.7918 30.4493C21.9294 30.3727 22.0977 30.3758 22.2325 30.4579L23.1013 30.9863L23.9261 30.16L23.4006 29.2927C23.3186 29.1573 23.3156 28.9882 23.3927 28.85C23.5471 28.5735 23.6692 28.2798 23.7557 27.9772C23.799 27.8255 23.9202 27.7087 24.0732 27.6712L25.06 27.4295V26.2608L24.077 26.0201C23.9236 25.9824 23.8021 25.8651 23.7591 25.7129ZM19.7956 29.505C18.3286 29.505 17.1351 28.3091 17.1351 26.8391C17.1351 25.3691 18.3287 24.1732 19.7956 24.1732C21.2626 24.1732 22.4562 25.3691 22.4562 26.8391C22.4562 28.3091 21.2626 29.505 19.7956 29.505Z" fill="white"/>
<path d="M29.9766 20.0137V27.6332L30.4337 27.9112C30.7182 27.7676 31.013 27.6455 31.3147 27.5464L31.6767 26.063C31.6979 25.976 31.7441 25.9005 31.8065 25.8433V20.0137H29.9766Z" fill="white"/>
<path d="M29.0983 20.0135H24.557C23.8735 20.0135 23.2686 19.6709 22.9034 19.1484H13.6018C13.3607 19.5133 12.9943 19.7883 12.564 19.9099V21.0684C12.564 21.7955 11.9737 22.3871 11.248 22.3871H10.4922V34.5281H25.4105V32.4164C25.4105 32.2139 25.5486 32.0376 25.745 31.9894L27.2313 31.6254C27.3311 31.3235 27.4537 31.0284 27.5978 30.7438L26.8065 29.4378C26.7016 29.2647 26.7284 29.0421 26.8714 28.8989L28.5867 27.1802C28.7226 27.044 28.9298 27.0144 29.0984 27.1022V20.0135H29.0983ZM25.9369 27.7737C25.9369 27.9763 25.7988 28.1526 25.6024 28.2007L24.521 28.4656C24.4528 28.6643 24.372 28.8589 24.2789 29.048L24.8545 29.9979C24.9594 30.1711 24.9327 30.3936 24.7897 30.5369L23.4779 31.8512C23.335 31.9943 23.1128 32.0213 22.94 31.9161L21.988 31.337C21.7991 31.4297 21.6046 31.5103 21.4061 31.5781L21.1429 32.657C21.0948 32.8538 20.9188 32.9922 20.7167 32.9922H18.8616C18.6595 32.9922 18.4835 32.8538 18.4354 32.657L18.1711 31.5735C17.9727 31.5052 17.7784 31.4241 17.5898 31.3309L16.6418 31.9076C16.469 32.0127 16.2469 31.9859 16.1039 31.8427L14.7921 30.5283C14.6492 30.3851 14.6224 30.1625 14.7273 29.9894L15.3053 29.0355C15.2128 28.8462 15.1324 28.6513 15.0648 28.4525L13.988 28.1887C13.7916 28.1406 13.6534 27.9643 13.6534 27.7617V25.9029C13.6534 25.7003 13.7916 25.524 13.988 25.4759L15.0693 25.211C15.1375 25.0123 15.2185 24.8177 15.3115 24.6286L14.7358 23.6788C14.631 23.5057 14.6577 23.2831 14.8007 23.1399L16.1125 21.8255C16.2554 21.6824 16.4776 21.6554 16.6503 21.7606L17.6023 22.3398C17.7912 22.2471 17.9858 22.1665 18.1843 22.0988L18.4475 21.0198C18.4955 20.823 18.6716 20.6847 18.8736 20.6847H20.7288C20.9309 20.6847 21.1069 20.823 21.1549 21.0198L21.4193 22.1033C21.6176 22.1717 21.8119 22.2528 22.0005 22.3459L22.9486 21.7693C23.1214 21.6641 23.3435 21.691 23.4864 21.8341L24.7982 23.1485C24.9412 23.2917 24.968 23.5143 24.8631 23.6875L24.2851 24.6413C24.3775 24.8306 24.458 25.0256 24.5256 25.2244L25.6024 25.4881C25.7988 25.5362 25.9369 25.7126 25.9369 25.9151V27.7737Z" fill="white"/>
<path d="M7.32561 17.1631C6.79288 17.1631 6.35938 17.5974 6.35938 18.1313C6.35938 18.6651 6.79288 19.0994 7.32561 19.0994H12.0621C12.5949 19.0994 13.0284 18.665 13.0284 18.1313C13.0284 17.5974 12.5949 17.1631 12.0621 17.1631H7.32561Z" fill="white"/>
<path d="M7.70508 19.9785V21.0681C7.70508 21.3105 7.90191 21.5076 8.14379 21.5076H11.2482C11.4901 21.5076 11.6869 21.3105 11.6869 21.0681V19.9785H7.70508Z" fill="white"/>
<path d="M10.9191 11.0121C10.9191 10.3253 10.37 9.7666 9.69497 9.7666C9.01993 9.7666 8.4707 10.3253 8.4707 11.0121C8.4707 11.6988 9.01993 12.2575 9.69497 12.2575C10.37 12.2575 10.9191 11.6988 10.9191 11.0121Z" fill="white"/>
<path d="M9.67644 4.18164C6.49587 4.18164 3.9082 6.77153 3.9082 9.95484C3.9082 11.6028 4.61495 13.1763 5.84707 14.2715C6.47775 14.8322 6.97553 15.5227 7.30057 16.2844C7.31014 16.2843 7.31971 16.2842 7.32928 16.2842H9.25884V13.0883C8.30987 12.8838 7.59595 12.03 7.59595 11.0106C7.59595 9.83911 8.53867 8.88604 9.69755 8.88604C10.8563 8.88604 11.7991 9.83911 11.7991 11.0106C11.7991 12.03 11.0851 12.8838 10.1363 13.0883V16.2842H12.0525C12.3776 15.5225 12.8755 14.8319 13.5058 14.2715C14.738 13.1762 15.4447 11.6028 15.4447 9.95484C15.4447 6.77153 12.857 4.18164 9.67644 4.18164ZM9.67644 6.20376C7.59612 6.20376 5.90357 7.88656 5.90357 9.95492C5.90357 10.1977 5.70716 10.3945 5.46486 10.3945C5.22255 10.3945 5.02614 10.1977 5.02614 9.95492C5.02614 7.40178 7.11228 5.32471 9.67636 5.32471C9.91866 5.32471 10.1151 5.52154 10.1151 5.76428C10.1151 6.00701 9.91875 6.20376 9.67644 6.20376Z" fill="white"/>
<path d="M9.6809 2.31648C9.4386 2.31648 9.24219 2.11964 9.24219 1.87691V1.11144C9.24219 0.868711 9.4386 0.671875 9.6809 0.671875C9.92321 0.671875 10.1196 0.868711 10.1196 1.11144V1.87691C10.1196 2.11964 9.92321 2.31648 9.6809 2.31648Z" fill="white"/>
<path d="M3.73188 4.938C3.61847 4.938 3.50505 4.89415 3.41915 4.80672L2.8877 4.26544C2.71779 4.09236 2.72001 3.81407 2.89275 3.64382C3.06531 3.47365 3.343 3.4757 3.51317 3.64886L4.04462 4.19014C4.30188 4.45227 4.09812 4.938 3.73188 4.938Z" fill="white"/>
<path d="M1.8583 9.51488H1.10668C0.864377 9.51488 0.667969 9.31804 0.667969 9.07531C0.667969 8.83258 0.864377 8.63574 1.10668 8.63574H1.8583C2.10061 8.63574 2.29701 8.83258 2.29701 9.07531C2.29693 9.31813 2.10061 9.51488 1.8583 9.51488Z" fill="white"/>
<path d="M18.2841 9.48265H17.5325C17.2902 9.48265 17.0938 9.28582 17.0938 9.04308C17.0938 8.80035 17.2902 8.60352 17.5325 8.60352H18.2841C18.5264 8.60352 18.7228 8.80035 18.7228 9.04308C18.7227 9.28582 18.5264 9.48265 18.2841 9.48265Z" fill="white"/>
<path d="M15.635 4.9155C15.2688 4.9155 15.065 4.42978 15.3223 4.16765L15.8537 3.62637C16.0237 3.45329 16.3016 3.45116 16.4741 3.62133C16.6469 3.79158 16.6491 4.06987 16.4792 4.24294L15.9477 4.78422C15.8618 4.87166 15.7484 4.9155 15.635 4.9155Z" fill="white"/>
<path d="M33.3095 30.1641C31.3974 30.1641 29.8418 31.7228 29.8418 33.6386C29.8418 35.5545 31.3974 37.1132 33.3095 37.1132C35.2217 37.1132 36.7773 35.5545 36.7773 33.6386C36.7773 31.7228 35.2217 30.1641 33.3095 30.1641ZM33.3095 35.5015C32.2843 35.5015 31.4503 34.6659 31.4503 33.6386C31.4503 32.6115 32.2843 31.7758 33.3095 31.7758C34.3347 31.7758 35.1688 32.6114 35.1688 33.6386C35.1688 34.6659 34.3347 35.5015 33.3095 35.5015Z" fill="white"/>
<path d="M33.308 32.6553C32.7666 32.6553 32.3262 33.0965 32.3262 33.639C32.3262 34.1815 32.7666 34.6228 33.308 34.6228C33.8495 34.6228 34.2899 34.1815 34.2899 33.639C34.2899 33.0965 33.8495 32.6553 33.308 32.6553Z" fill="white"/>
<path d="M38.9388 32.4369C38.7854 32.3993 38.6638 32.282 38.6208 32.1296C38.5062 31.7237 38.3437 31.3295 38.1378 30.9581C38.0613 30.8201 38.0646 30.6515 38.1463 30.5166L38.8912 29.2874L37.6628 28.0567L36.4403 28.8004C36.3053 28.8825 36.1364 28.8856 35.9985 28.8082C35.6286 28.6009 35.2356 28.4369 34.8307 28.3207C34.6792 28.2773 34.5627 28.1558 34.5252 28.0025L34.1846 26.6064H32.4475L32.1082 27.9975C32.0706 28.1512 31.9535 28.2729 31.8014 28.3161C31.3963 28.431 31.0029 28.5938 30.6321 28.8001C30.4943 28.8767 30.326 28.8735 30.1914 28.7916L28.9646 28.0453L27.7362 29.2761L28.4785 30.501C28.5605 30.6364 28.5635 30.8055 28.4863 30.9438C28.2795 31.3143 28.1158 31.708 27.9998 32.1138C27.9565 32.2655 27.8353 32.3824 27.6823 32.4198L26.2891 32.7611V34.5018L27.6774 34.8418C27.8308 34.8794 27.9524 34.9968 27.9954 35.1491C28.11 35.5551 28.2725 35.9493 28.4784 36.3206C28.5549 36.4587 28.5516 36.6272 28.4699 36.7622L27.725 37.9913L28.9534 39.2221L30.176 38.4785C30.311 38.3963 30.4799 38.3933 30.6177 38.4706C30.9877 38.678 31.3806 38.842 31.7856 38.9581C31.937 39.0015 32.0536 39.123 32.0911 39.2763L32.4316 40.6722H34.1687L34.508 39.2812C34.5456 39.1274 34.6628 39.0057 34.8148 38.9626C35.2199 38.8477 35.6133 38.6849 35.9841 38.4786C36.1219 38.4019 36.2901 38.4051 36.4248 38.4871L37.6516 39.2333L38.88 38.0026L38.1377 36.7776C38.0557 36.6423 38.0527 36.4732 38.1299 36.3349C38.3367 35.9644 38.5004 35.5706 38.6164 35.1648C38.6597 35.0131 38.7809 34.8963 38.9339 34.8589L40.3271 34.5176V32.7769L38.9388 32.4369ZM33.3081 37.993C30.9121 37.993 28.963 36.04 28.963 33.6393C28.963 31.2386 30.9122 29.2856 33.3081 29.2856C35.7039 29.2856 37.6531 31.2386 37.6531 33.6393C37.6531 36.04 35.704 37.993 33.3081 37.993Z" fill="white"/>
</svg>
