<svg width="41" height="41" viewBox="0 0 41 41" fill="none" xmlns="http://www.w3.org/2000/svg">
<path d="M0.667969 33.2902H3.52459V27.0645H0.667969V33.2902Z" fill="white"/>
<path d="M7.24805 16.8184V18.1754C7.24805 19.35 8.1976 20.3057 9.36477 20.3057C10.5319 20.3057 11.4815 19.35 11.4815 18.1754V16.83C10.143 17.4031 8.5835 17.3989 7.24805 16.8184Z" fill="white"/>
<path d="M12.3739 17.9258C12.4263 19.6498 11.1554 21.1964 9.36441 21.1964C7.57778 21.1964 6.30198 19.653 6.35489 17.9324C2.9793 18.9564 0.667969 22.0551 0.667969 25.6546V26.1702L3.52459 26.1641V23.8032C3.52459 23.5569 3.7245 23.3573 3.97099 23.3573C4.21749 23.3573 4.4174 23.557 4.4174 23.8032V33.2886H10.0201V27.7485C10.0201 24.4971 11.8825 21.4972 14.7846 20.0405C14.8379 19.7927 14.9203 19.5494 15.0288 19.3188C14.2372 18.6907 13.3328 18.2165 12.3739 17.9258V17.9258ZM7.09599 31.0592C7.09599 31.3055 6.89608 31.5051 6.64958 31.5051C6.40309 31.5051 6.20318 31.3054 6.20318 31.0592V30.3541C6.20318 30.1078 6.40309 29.9082 6.64958 29.9082C6.89608 29.9082 7.09599 30.1079 7.09599 30.3541V31.0592ZM7.09599 28.3922C7.09599 28.6385 6.89608 28.8381 6.64958 28.8381C6.40309 28.8381 6.20318 28.6384 6.20318 28.3922V24.2591C6.20318 24.0128 6.40309 23.8132 6.64958 23.8132C6.89608 23.8132 7.09599 24.0129 7.09599 24.2591V28.3922Z" fill="white"/>
<path d="M4.92969 7.22189V11.9274C4.92969 14.3766 6.92453 16.3691 9.37654 16.3691C12.0406 16.3691 13.8558 14.1202 13.8235 11.5787C12.9318 10.3423 12.4148 8.85135 12.5725 7.31813C11.0246 7.60684 9.42594 7.21471 8.18177 6.25293V7.69684C8.14502 8.00265 7.97255 8.1494 7.66443 8.13709C6.46325 7.94401 5.5237 7.54 4.92969 7.22189V7.22189Z" fill="white"/>
<path d="M9.37182 1.20996C7.44937 1.20996 5.40667 1.73696 4.09156 3.22249C2.81167 4.66828 2.46389 6.67364 2.49176 8.54668C2.50859 9.6818 2.83244 11.0874 4.03874 11.5122V6.42296C4.03874 6.06014 4.46865 5.84809 4.75694 6.0692C4.76676 6.07664 5.72872 6.79611 7.29083 7.1556V5.22374C7.29083 4.76657 7.808 4.70025 8.08611 4.94469C9.25157 6.26228 11.0468 6.80731 12.7221 6.37193C12.9579 5.20674 13.3571 4.27991 13.9132 3.60565C13.653 3.51796 13.3683 3.46967 13.0616 3.46181C12.8196 3.45565 12.6267 3.25788 12.6267 3.01609C12.6267 2.08422 11.8647 1.32611 10.9281 1.32611C10.4127 1.32603 9.89301 1.20996 9.37182 1.20996V1.20996Z" fill="white"/>
<path d="M37.8125 33.2902H40.6691V27.0645H37.8125V33.2902Z" fill="white"/>
<path d="M29.8535 16.83V18.1753C29.8535 19.35 30.8031 20.3057 31.9702 20.3057C33.1374 20.3057 34.087 19.35 34.087 18.1754V16.8184C32.7515 17.399 31.1921 17.4031 29.8535 16.83V16.83Z" fill="white"/>
<path d="M27.5117 11.1578V11.9266C27.5117 14.3758 29.5066 16.3684 31.9586 16.3684C34.4106 16.3684 36.4055 14.3758 36.4055 11.9266V6.92569C34.5449 7.77132 32.3756 7.50449 30.7638 6.25391V7.69611C30.7271 8.00191 30.5546 8.14866 30.2465 8.13636C29.7033 8.04909 29.1707 7.91183 28.6557 7.72679C28.579 9.14856 28.0246 10.3417 27.5117 11.1578Z" fill="white"/>
<path d="M36.8523 5.73101C37.0858 5.73101 37.2987 5.94323 37.2987 6.1769V11.381C38.4871 10.7299 38.5105 8.97694 38.5568 7.82072C38.5578 7.7979 38.6361 5.47836 37.4703 4.23496C37 3.73352 36.4021 3.4801 35.6422 3.46061C35.4002 3.45446 35.2072 3.25669 35.2072 3.0149C35.2072 2.08303 34.4452 1.32492 33.5086 1.32492C31.1406 1.32492 28.8493 1.11424 26.9609 2.92037C27.847 4.01334 28.487 5.354 28.6325 6.76193C29.0333 6.92629 29.4477 7.05765 29.8714 7.15483V5.22272C29.8714 4.76555 30.3886 4.69923 30.6667 4.94367C32.1751 6.64894 34.66 7.01928 36.5748 5.82468C36.6561 5.7687 36.7486 5.7375 36.8523 5.73101V5.73101Z" fill="white"/>
<path d="M34.9806 17.9333C35.0322 19.6551 33.7577 21.1974 31.9711 21.1974C30.1802 21.1974 28.9078 19.6497 28.9616 17.9268C28.0028 18.2174 27.0983 18.6918 26.3066 19.3198C26.4152 19.5505 26.4975 19.7937 26.5508 20.0416C29.4529 21.4982 31.3153 24.4981 31.3153 27.7496V33.2897H36.918V23.8044C36.918 23.558 37.1179 23.3585 37.3644 23.3585C37.611 23.3585 37.8108 23.5581 37.8108 23.8044V26.1653L40.6675 26.1712V25.6556C40.6675 22.0562 38.3562 18.9574 34.9806 17.9333V17.9333ZM35.1065 31.0602C35.1065 31.3065 34.9066 31.5061 34.6601 31.5061C34.4136 31.5061 34.2137 31.3065 34.2137 31.0602V30.3552C34.2137 30.1089 34.4136 29.9093 34.6601 29.9093C34.9066 29.9093 35.1065 30.109 35.1065 30.3552V31.0602ZM35.1065 28.3933C35.1065 28.6396 34.9066 28.8392 34.6601 28.8392C34.4136 28.8392 34.2137 28.6395 34.2137 28.3933V24.2602C34.2137 24.0138 34.4136 23.8143 34.6601 23.8143C34.9066 23.8143 35.1065 24.0139 35.1065 24.2602V28.3933Z" fill="white"/>
<path d="M26.6032 21.085C26.5557 21.5126 26.4229 21.9296 26.208 22.3184C26.2064 22.3214 26.2047 22.3243 26.203 22.3272L24.4698 25.3018C24.3497 25.508 24.0884 25.583 23.8769 25.4726L22.5796 24.7944L22.1254 26.1763L23.1597 32.7373C23.1781 32.8536 23.1496 32.9724 23.0806 33.0679L21.0143 35.9245C20.8388 36.1669 20.466 36.1669 20.2906 35.9245L18.2242 33.0679C18.1549 32.972 18.1265 32.8527 18.1452 32.7361L19.202 26.1575L18.754 24.7944L17.4568 25.4726C17.2453 25.5833 16.984 25.5081 16.8639 25.3018L15.1306 22.3272C15.1289 22.3243 15.1272 22.3214 15.1255 22.3184C14.9108 21.9297 14.7779 21.5126 14.7303 21.085C12.3894 22.4644 10.9121 25.0068 10.9121 27.7486V29.708H14.2256V27.4257C14.2256 27.1794 14.4256 26.9798 14.6721 26.9798C14.9186 26.9798 15.1185 27.1794 15.1185 27.4257V37.2921H26.2437L26.2469 27.4257C26.2469 27.1794 26.4468 26.9798 26.6933 26.9798C26.9398 26.9798 27.1397 27.1794 27.1397 27.4257V29.7002L30.4212 29.7071V27.7487C30.4214 25.0068 28.9441 22.4643 26.6032 21.085V21.085Z" fill="white"/>
<path d="M27.1367 37.292H30.4215V30.5996H27.1367V37.292Z" fill="white"/>
<path d="M10.9121 37.292H14.2256V30.5996H10.9121V37.292Z" fill="white"/>
<path d="M16.1889 8.39551C16.0222 8.39551 15.8711 8.53645 15.8711 8.7079V11.9713C15.8711 14.6122 18.022 16.7605 20.6658 16.7605C23.3096 16.7605 25.4605 14.6122 25.4605 11.9713V9.75532C24.8639 10.6309 23.9407 11.3649 22.5877 11.4178C20.9377 11.4837 17.9677 9.68463 16.3739 8.46089C16.3091 8.41123 16.2446 8.39551 16.1889 8.39551Z" fill="white"/>
<path d="M18.2734 19.4582L20.6827 22.5642L23.092 19.4582V17.1094C21.5831 17.822 19.7868 17.8275 18.2734 17.1248V19.4582Z" fill="white"/>
<path d="M26.4139 3.67139C25.3939 2.30406 23.8579 1.42767 22.2212 1.0134C20.892 0.676995 18.5717 0.310761 17.4622 1.39852C17.1286 1.72553 16.9704 2.17509 16.9784 2.77294C16.9816 3.01704 16.7878 3.21841 16.5435 3.22465C14.4173 3.27943 13.7002 5.47547 13.4731 7.308C13.2862 8.81507 13.8908 10.4941 14.978 11.564V8.70678C14.978 7.72834 16.1413 7.15655 16.9177 7.75278C18.7409 9.15285 21.3475 10.5753 22.5525 10.5256C24.9963 10.4301 25.4465 7.46689 25.4645 7.34082C25.5404 6.80792 26.3529 6.86399 26.3529 7.40287V11.262C28.1407 8.91328 28.1813 6.04067 26.4139 3.67139V3.67139ZM25.0339 5.25453C24.8417 5.39752 24.5499 5.35196 24.4092 5.16333C23.5326 3.98814 21.9398 3.27918 20.0391 3.21824C19.7927 3.21037 19.5994 3.00439 19.6072 2.75833C19.6151 2.51218 19.8175 2.31808 20.0677 2.32697C22.2417 2.39663 24.085 3.23627 25.1251 4.63052C25.2724 4.82796 25.2316 5.10735 25.0339 5.25453Z" fill="white"/>
<path d="M19.9832 25.6763H21.3504L21.7809 24.3662L20.6668 23.7441L19.5527 24.3662L19.9832 25.6763Z" fill="white"/>
<path d="M19.0566 32.6952L20.6529 34.902L22.2497 32.6946L21.2838 26.5674H20.041L19.0566 32.6952Z" fill="white"/>
<path d="M21.3457 23.1436L23.9121 24.4852L25.4279 21.8837C26.1633 20.5467 25.435 18.8135 23.9682 18.4023V19.61C23.9682 19.7089 23.9353 19.8049 23.8747 19.8832L21.3457 23.1436Z" fill="white"/>
<path d="M15.905 21.8837L17.4209 24.4852L19.9873 23.1436L17.4582 19.8832C17.3976 19.805 17.3647 19.7089 17.3647 19.61V18.4023C15.8987 18.8133 15.1695 20.5465 15.905 21.8837V21.8837Z" fill="white"/>
<path d="M7.7207 40.6716H33.6131V38.1924H7.7207V40.6716Z" fill="white"/>
</svg>
