<svg width="40" height="40" viewBox="0 0 40 40" fill="none" xmlns="http://www.w3.org/2000/svg">
<path d="M15.5938 31.8643H18.3056V39.9999H15.5938V31.8643Z" fill="white"/>
<path d="M37.2891 19.6611H40.0009V40.0001H37.2891V19.6611Z" fill="white"/>
<path d="M26.4414 23.7285H29.1533V39.9997H26.4414V23.7285Z" fill="white"/>
<path d="M31.8652 29.1523H34.5771V39.9998H31.8652V29.1523Z" fill="white"/>
<path d="M21.0176 26.4404H23.7294V39.9998H21.0176V26.4404Z" fill="white"/>
<path d="M35.9328 14.2377C37.805 14.2377 39.3226 12.72 39.3226 10.8478C39.3226 8.97569 37.805 7.45801 35.9328 7.45801C34.0606 7.45801 32.543 8.97569 32.543 10.8478C32.543 12.72 34.0606 14.2377 35.9328 14.2377Z" fill="white"/>
<path d="M34.431 18.0352L35.2018 15.5308C34.7442 15.4596 34.3096 15.3247 33.9049 15.1328L33.1347 17.6359C32.5733 17.6603 32.0737 17.9104 31.7198 18.3009L28.4099 16.922C28.3211 17.3789 28.1428 17.8026 27.8906 18.1742L31.1984 19.5525C31.1964 19.5891 31.1876 19.6237 31.1876 19.6609C31.1876 20.7823 32.1001 21.6948 33.2215 21.6948C34.3428 21.6948 35.2554 20.7823 35.2554 19.6609C35.2554 18.9938 34.9286 18.4067 34.431 18.0352Z" fill="white"/>
<path d="M25.0866 18.3051C26.2099 18.3051 27.1205 17.3945 27.1205 16.2712C27.1205 15.1479 26.2099 14.2373 25.0866 14.2373C23.9633 14.2373 23.0527 15.1479 23.0527 16.2712C23.0527 17.3945 23.9633 18.3051 25.0866 18.3051Z" fill="white"/>
<path d="M22.8465 18.7979C22.5061 18.4962 22.2275 18.1314 22.0309 17.7158L18.1719 20.6101L18.9848 21.6948L22.8465 18.7979Z" fill="white"/>
<path d="M22.6744 25.0847C22.9144 24.2196 23.0527 23.3132 23.0527 22.3728C23.0527 21.724 22.9856 21.0915 22.869 20.4766L21.6399 21.3986C21.6751 21.7186 21.6968 22.0433 21.6968 22.3728C21.6968 23.3193 21.5429 24.2298 21.2656 25.0847H22.6744Z" fill="white"/>
<path d="M4.06882 22.3726C4.06882 17.513 8.02272 13.5591 12.8824 13.5591C15.9061 13.5591 18.578 15.0913 20.1665 17.4187L21.2498 16.6065C19.4132 13.9496 16.3495 12.2031 12.8824 12.2031C7.27492 12.2031 2.71289 16.7652 2.71289 22.3726C2.71289 27.9801 7.27492 32.5421 12.8824 32.5421C13.3434 32.5421 13.7936 32.5008 14.2383 32.4411V31.0709C13.7949 31.1394 13.3448 31.1862 12.8824 31.1862C8.02272 31.1862 4.06882 27.2323 4.06882 22.3726Z" fill="white"/>
<path d="M16.2676 30.5089H18.9591C19.2025 30.3266 19.4371 30.1347 19.6628 29.932V27.9971C18.7571 29.0872 17.5937 29.955 16.2676 30.5089Z" fill="white"/>
<path d="M16.9493 25.0845C15.4537 25.0845 14.2374 23.8683 14.2374 22.3727C14.2374 20.8771 15.4537 19.6608 16.9493 19.6608C17.0177 19.6608 17.0815 19.6757 17.1486 19.6811L19.0801 18.233C17.7404 16.2337 15.4625 14.915 12.8815 14.915C8.76959 14.915 5.42383 18.2608 5.42383 22.3727C5.42383 26.4845 8.76959 29.8303 12.8815 29.8303C16.9933 29.8303 20.3391 26.4845 20.3391 22.3727C20.3391 22.3727 20.3391 22.3727 20.3391 22.372L19.6042 22.9232C19.3493 24.1557 18.2564 25.0845 16.9493 25.0845Z" fill="white"/>
<path d="M0.280286 37.1413C-0.174629 37.7339 -0.0641204 38.5861 0.527066 39.0396C1.10266 39.4851 1.99012 39.3657 2.43147 38.7929L7.3074 32.4539C6.51147 32.0118 5.77859 31.4722 5.11215 30.8613L0.280286 37.1413Z" fill="white"/>
<path d="M16.9497 23.7285C17.6985 23.7285 18.3056 23.1214 18.3056 22.3725C18.3056 21.6237 17.6985 21.0166 16.9497 21.0166C16.2008 21.0166 15.5938 21.6237 15.5938 22.3725C15.5938 23.1214 16.2008 23.7285 16.9497 23.7285Z" fill="white"/>
<path d="M12.8827 10.8475C15.0644 10.8475 17.099 11.4678 18.84 12.5254H31.499C31.301 12.0027 31.1878 11.4386 31.1878 10.8475C31.1878 9.65559 31.6298 8.56949 32.3553 7.73627C31.8956 6.38102 30.6068 5.42373 29.1539 5.42373C28.7003 5.42373 28.2644 5.51051 27.8583 5.68203L27.1186 5.9939L26.9349 5.2122C26.2129 2.14373 23.501 0 20.3403 0C16.602 0 13.5607 3.04136 13.5607 6.77966C13.5607 6.82441 13.56 6.86508 13.5641 6.91051L13.6624 7.91322L12.6969 7.62644C12.32 7.5139 11.9261 7.45763 11.5268 7.45763C9.28339 7.45763 7.45898 9.28203 7.45898 11.5254C7.45898 11.7471 7.48271 11.9647 7.51797 12.1803C9.12136 11.3329 10.9458 10.8475 12.8827 10.8475ZM22.3742 8.13559H23.7302V9.49153H22.3742V8.13559ZM19.6624 8.13559H21.0183V9.49153H19.6624V8.13559ZM16.9505 8.13559H18.3064V9.49153H16.9505V8.13559Z" fill="white"/>
</svg>
