<svg width="46" height="46" viewBox="0 0 46 46" fill="none" xmlns="http://www.w3.org/2000/svg">
<circle cx="23" cy="23" r="22.5" stroke="white"/>
<path d="M32.2588 17.1476C31.5522 17.4538 30.8221 17.6658 30.0448 17.76C30.8456 17.2889 31.458 16.5352 31.7406 15.6166C30.9869 16.0641 30.1626 16.3703 29.2911 16.5588C28.5845 15.8051 27.5717 15.334 26.4647 15.334C24.3213 15.334 22.6019 17.0769 22.6019 19.1968C22.6019 19.503 22.6254 19.7856 22.6961 20.0682C19.4928 19.9269 16.6664 18.3724 14.7586 16.0406C13.3925 18.4902 14.9234 20.5158 15.9362 21.1988C15.3239 21.1988 14.7115 21.0104 14.1933 20.7277C14.1933 22.6356 15.5358 24.2137 17.2788 24.567C16.9019 24.6847 16.054 24.7554 15.5358 24.6376C16.0305 26.1686 17.4672 27.2992 19.1395 27.3227C17.8205 28.3591 15.8891 29.1834 13.416 28.9244C15.1354 30.0314 17.161 30.6673 19.3515 30.6673C26.4647 30.6673 30.3274 24.7789 30.3274 19.6914C30.3274 19.5265 30.3274 19.3616 30.3039 19.1968C31.1047 18.6079 31.7642 17.9249 32.2588 17.1476Z" fill="white"/>
</svg>
