<svg width="46" height="46" viewBox="0 0 46 46" fill="none" xmlns="http://www.w3.org/2000/svg">
<circle cx="23" cy="23" r="22.5" stroke="white"/>
<path d="M32.1835 18.3904C31.9627 17.5695 31.3154 16.9224 30.4946 16.7013C28.9951 16.291 22.9969 16.291 22.9969 16.291C22.9969 16.291 16.999 16.291 15.4995 16.6857C14.6945 16.9066 14.0314 17.5696 13.8106 18.3904C13.416 19.8898 13.416 22.9993 13.416 22.9993C13.416 22.9993 13.416 26.1246 13.8106 27.6083C14.0317 28.4291 14.6787 29.0762 15.4996 29.2973C17.0148 29.7077 22.9972 29.7077 22.9972 29.7077C22.9972 29.7077 28.9951 29.7077 30.4946 29.313C31.3155 29.092 31.9627 28.4449 32.1837 27.6241C32.5782 26.1246 32.5782 23.0151 32.5782 23.0151C32.5782 23.0151 32.594 19.8898 32.1835 18.3904ZM21.0873 25.8721V20.1266L26.075 22.9993L21.0873 25.8721Z" fill="white"/>
</svg>
